<?xml version="1.0" encoding="UTF-8"?>
<!DOCTYPE svg PUBLIC "-//W3C//DTD SVG 1.1//EN" "http://www.w3.org/Graphics/SVG/1.1/DTD/svg11.dtd">
<svg xmlns="http://www.w3.org/2000/svg" version="1.1" width="864px" height="289px" style="shape-rendering:geometricPrecision; text-rendering:geometricPrecision; image-rendering:optimizeQuality; fill-rule:evenodd; clip-rule:evenodd" xmlns:xlink="http://www.w3.org/1999/xlink">
<g><path style="opacity:0.949" fill="#5da263" d="M 230.5,53.5 C 231.818,56.5645 231.818,59.7312 230.5,63C 225.649,63.1745 220.982,63.6745 216.5,64.5C 215.662,64.1583 215.328,63.4916 215.5,62.5C 220.024,62.5956 225.024,62.2623 230.5,61.5C 230.5,58.8333 230.5,56.1667 230.5,53.5 Z"/></g>
<g><path style="opacity:0.434" fill="#8edb95" d="M 215.5,62.5 C 215.328,63.4916 215.662,64.1583 216.5,64.5C 221.363,64.1805 226.03,64.5139 230.5,65.5C 225.167,65.5 219.833,65.5 214.5,65.5C 214.263,64.209 214.596,63.209 215.5,62.5 Z"/></g>
<g><path style="opacity:1" fill="#2e9a34" d="M 173.5,67.5 C 177.167,67.5 180.833,67.5 184.5,67.5C 184.663,69.8568 184.497,72.1902 184,74.5C 183.802,72.6183 183.302,70.9516 182.5,69.5C 181.167,69.5 179.833,69.5 178.5,69.5C 176.143,69.6633 173.81,69.4966 171.5,69C 172.416,68.7216 173.082,68.2216 173.5,67.5 Z"/></g>
<g><path style="opacity:0.797" fill="#7cc482" d="M 230.5,65.5 C 231.477,68.2869 231.81,71.2869 231.5,74.5C 228.833,74.5 226.167,74.5 223.5,74.5C 225.607,73.5318 227.941,73.1984 230.5,73.5C 230.5,70.8333 230.5,68.1667 230.5,65.5 Z"/></g>
<g><path style="opacity:1" fill="#3c9d44" d="M 230.5,53.5 C 230.56,52.9569 230.893,52.6236 231.5,52.5C 232.773,68.848 232.773,85.1813 231.5,101.5C 228.833,101.5 226.167,101.5 223.5,101.5C 223.167,101.5 222.833,101.5 222.5,101.5C 223.552,99.744 225.219,99.0773 227.5,99.5C 229.228,96.5782 230.228,93.2449 230.5,89.5C 225.251,89.1413 220.251,88.1413 215.5,86.5C 220.305,85.5128 225.305,85.1795 230.5,85.5C 230.5,82.8333 230.5,80.1667 230.5,77.5C 227.841,77.0826 225.508,76.0826 223.5,74.5C 226.167,74.5 228.833,74.5 231.5,74.5C 231.81,71.2869 231.477,68.2869 230.5,65.5C 226.03,64.5139 221.363,64.1805 216.5,64.5C 220.982,63.6745 225.649,63.1745 230.5,63C 231.818,59.7312 231.818,56.5645 230.5,53.5 Z"/></g>
<g><path style="opacity:0.362" fill="#7abe7f" d="M 199.5,51.5 C 199.5,64.1667 199.5,76.8333 199.5,89.5C 198.833,91.5 198.167,93.5 197.5,95.5C 198.042,80.6747 198.709,66.0081 199.5,51.5 Z"/></g>
<g><path style="opacity:0.378" fill="#9ce5a6" d="M 223.5,74.5 C 225.508,76.0826 227.841,77.0826 230.5,77.5C 227.833,77.5 225.167,77.5 222.5,77.5C 222.263,76.209 222.596,75.209 223.5,74.5 Z"/></g>
<g><path style="opacity:0.922" fill="#65b469" d="M 173.5,67.5 C 173.082,68.2216 172.416,68.7216 171.5,69C 173.81,69.4966 176.143,69.6633 178.5,69.5C 161.721,72.942 150.054,82.6086 143.5,98.5C 143.715,96.8212 143.048,95.8212 141.5,95.5C 147.537,80.7919 158.203,71.4586 173.5,67.5 Z"/></g>
<g><path style="opacity:1" fill="#2c9632" d="M 199.5,51.5 C 200.167,51.5 200.833,51.5 201.5,51.5C 201.5,52.1667 201.5,52.8333 201.5,53.5C 201.726,60.8761 201.392,68.2094 200.5,75.5C 200.963,82.938 200.63,87.6046 199.5,89.5C 199.5,76.8333 199.5,64.1667 199.5,51.5 Z"/></g>
<g><path style="opacity:1" fill="#5cae5f" d="M 141.5,96.5 C 141.607,98.3786 141.107,98.7119 140,97.5C 139.506,99.1341 139.34,100.801 139.5,102.5C 138.833,101.5 138.167,100.5 137.5,99.5C 136.037,90.9072 132.204,83.5739 126,77.5C 125.301,75.9262 125.635,74.5929 127,73.5C 133.884,79.9483 138.717,87.6149 141.5,96.5 Z"/></g>
<g><path style="opacity:0.384" fill="#c4e3c1" d="M 487.5,86.5 C 477.198,85.6 466.865,85.2667 456.5,85.5C 455.503,105.993 455.169,126.66 455.5,147.5C 454.503,126.673 454.169,105.673 454.5,84.5C 464.506,84.3335 474.506,84.5002 484.5,85C 485.737,85.2321 486.737,85.7321 487.5,86.5 Z"/></g>
<g><path style="opacity:0.959" fill="#b2d47e" d="M 693.5,90.5 C 689.422,89.2981 685.422,87.7981 681.5,86C 676.177,85.5006 670.844,85.334 665.5,85.5C 671.958,83.0249 678.625,82.8582 685.5,85C 688.756,86.116 691.422,87.9493 693.5,90.5 Z"/></g>
<g><path style="opacity:0.422" fill="#dbefb2" d="M 749.5,96.5 C 749.5,92.8333 749.5,89.1667 749.5,85.5C 735.5,85.5 721.5,85.5 707.5,85.5C 707.5,89.1667 707.5,92.8333 707.5,96.5C 712.167,96.5 716.833,96.5 721.5,96.5C 721.5,96.8333 721.5,97.1667 721.5,97.5C 716.5,97.5 711.5,97.5 706.5,97.5C 706.5,93.1667 706.5,88.8333 706.5,84.5C 721.167,84.5 735.833,84.5 750.5,84.5C 750.817,88.7016 750.483,92.7016 749.5,96.5 Z"/></g>
<g><path style="opacity:1" fill="#48953a" d="M 456.5,85.5 C 466.865,85.2667 477.198,85.6 487.5,86.5C 493.255,88.4277 496.755,92.4277 498,98.5C 499.193,103.672 498.36,108.338 495.5,112.5C 495.451,109.626 495.784,106.792 496.5,104C 496.167,103.167 495.833,102.333 495.5,101.5C 495.167,101.667 494.833,101.833 494.5,102C 493.751,103.734 493.251,105.567 493,107.5C 491.273,104.651 491.106,101.651 492.5,98.5C 494.016,99.8038 494.682,99.3038 494.5,97C 490.39,87.7396 483.723,85.4063 474.5,90C 474.833,90.3333 475.167,90.6667 475.5,91C 471.789,91.1747 468.122,91.6747 464.5,92.5C 468.904,93.2472 472.738,93.2472 476,92.5C 478.071,93.1029 479.238,94.4362 479.5,96.5C 475.818,96.3347 472.152,96.5014 468.5,97C 469.833,101 469.833,105 468.5,109C 472.821,109.499 477.154,109.666 481.5,109.5C 483.167,108.833 484.833,108.167 486.5,107.5C 485.514,109.516 483.847,110.849 481.5,111.5C 479.234,112.314 476.9,112.814 474.5,113C 476.302,116.077 478.302,116.243 480.5,113.5C 480.833,114 481.167,114.5 481.5,115C 480.24,116.806 479.073,118.639 478,120.5C 476.817,119.269 475.651,119.269 474.5,120.5C 475.127,121.417 475.461,122.417 475.5,123.5C 474.833,123.167 474.167,122.833 473.5,122.5C 473.586,121.504 473.252,120.671 472.5,120C 470.866,119.506 469.199,119.34 467.5,119.5C 467.5,128.5 467.5,137.5 467.5,146.5C 463.649,147.029 460.149,146.362 457,144.5C 456.5,124.836 456.333,105.169 456.5,85.5 Z M 479.5,96.5 C 480.391,97.1098 481.391,97.4431 482.5,97.5C 485.367,101.767 485.033,105.767 481.5,109.5C 477.154,109.666 472.821,109.499 468.5,109C 469.833,105 469.833,101 468.5,97C 472.152,96.5014 475.818,96.3347 479.5,96.5 Z"/></g>
<g><path style="opacity:1" fill="#6eb32a" d="M 617.5,95.5 C 617.5,95.8333 617.5,96.1667 617.5,96.5C 617.5,101.167 617.5,105.833 617.5,110.5C 623.645,111.49 629.978,111.823 636.5,111.5C 636.5,114.5 636.5,117.5 636.5,120.5C 630.167,120.5 623.833,120.5 617.5,120.5C 617.5,118.833 617.5,117.167 617.5,115.5C 614.753,115.813 612.086,115.48 609.5,114.5C 610.429,112.678 609.762,111.345 607.5,110.5C 614.894,108.712 616.394,104.712 612,98.5C 610.644,97.6198 609.144,97.2865 607.5,97.5C 607.5,95.5 607.5,93.5 607.5,91.5C 612.959,91.8967 618.292,91.3967 623.5,90C 623,89.5 622.5,89 622,88.5C 616.796,88.8185 611.629,88.8185 606.5,88.5C 606.611,87.8826 606.944,87.3826 607.5,87C 617.828,86.5002 628.161,86.3335 638.5,86.5C 638.5,89.1667 638.5,91.8333 638.5,94.5C 631.313,94.1755 624.313,94.5088 617.5,95.5 Z"/></g>
<g><path style="opacity:1" fill="#076738" d="M 285.5,85.5 C 285.427,87.0269 286.094,88.0269 287.5,88.5C 288.338,88.8417 288.672,89.5084 288.5,90.5C 288.5,91.1667 288.5,91.8333 288.5,92.5C 287.542,92.0472 286.708,91.3805 286,90.5C 285.667,91.1667 285.333,91.8333 285,92.5C 284.311,91.6433 283.478,90.9767 282.5,90.5C 281.253,92.0064 281.253,93.5064 282.5,95C 281.167,95.6667 279.833,96.3333 278.5,97C 279.749,98.8241 280.915,98.6574 282,96.5C 281.805,98.1261 281.805,99.7928 282,101.5C 283.183,100.269 284.349,100.269 285.5,101.5C 286.372,103.45 287.039,105.45 287.5,107.5C 286.833,107.5 286.167,107.5 285.5,107.5C 284.662,107.158 284.328,106.492 284.5,105.5C 284.631,104.624 284.298,103.957 283.5,103.5C 282.501,117.818 282.167,132.151 282.5,146.5C 278.5,146.5 274.5,146.5 270.5,146.5C 270.5,126.167 270.5,105.833 270.5,85.5C 275.5,85.5 280.5,85.5 285.5,85.5 Z"/></g>
<g><path style="opacity:0.325" fill="#a5d8bb" d="M 285.5,85.5 C 286.906,85.9731 287.573,86.9731 287.5,88.5C 286.094,88.0269 285.427,87.0269 285.5,85.5 Z"/></g>
<g><path style="opacity:1" fill="#94be6e" d="M 566.5,86.5 C 566.5,86.1667 566.5,85.8333 566.5,85.5C 568.833,85.5 571.167,85.5 573.5,85.5C 576.241,85.7073 578.574,86.7073 580.5,88.5C 576.573,87.4746 572.573,86.8079 568.5,86.5C 567.833,86.5 567.167,86.5 566.5,86.5 Z"/></g>
<g><path style="opacity:0.616" fill="#b6d48d" d="M 665.5,85.5 C 662.526,87.4623 659.526,89.4623 656.5,91.5C 658.427,87.9085 661.427,85.9085 665.5,85.5 Z"/></g>
<g><path style="opacity:0.067" fill="#d2f1d8" d="M 309.5,146.5 C 314.833,146.5 320.167,146.5 325.5,146.5C 325.83,125.993 325.497,105.66 324.5,85.5C 320.833,85.5 317.167,85.5 313.5,85.5C 312.833,99.5 312.167,113.5 311.5,127.5C 311.167,126.833 310.833,126.167 310.5,125.5C 311.496,112.01 311.829,98.3435 311.5,84.5C 316.5,84.5 321.5,84.5 326.5,84.5C 326.5,105.5 326.5,126.5 326.5,147.5C 320.642,147.822 314.975,147.489 309.5,146.5 Z"/></g>
<g><path style="opacity:1" fill="#82be2f" d="M 665.5,85.5 C 670.844,85.334 676.177,85.5006 681.5,86C 685.422,87.7981 689.422,89.2981 693.5,90.5C 693.833,90.5 694.167,90.5 694.5,90.5C 694.241,92.9893 695.241,94.656 697.5,95.5C 697.675,97.6208 697.341,99.6208 696.5,101.5C 695.292,102.234 693.959,102.567 692.5,102.5C 689.789,102.815 687.456,102.148 685.5,100.5C 685.573,98.9731 684.906,97.9731 683.5,97.5C 682.508,97.6716 681.842,97.3382 681.5,96.5C 679.883,95.0277 677.883,94.361 675.5,94.5C 673.117,94.361 671.117,95.0277 669.5,96.5C 667.688,98.4605 666.688,100.794 666.5,103.5C 666.5,104.167 666.5,104.833 666.5,105.5C 664.995,101.539 662.828,97.8723 660,94.5C 658.989,93.6634 657.822,93.33 656.5,93.5C 656.357,95.2624 656.691,96.9291 657.5,98.5C 656.726,99.7112 655.893,99.7112 655,98.5C 654.506,100.134 654.34,101.801 654.5,103.5C 655.5,103.5 656.5,103.5 657.5,103.5C 656.768,106.266 656.768,108.932 657.5,111.5C 656.833,111.5 656.167,111.5 655.5,111.5C 654.1,106.636 653.433,101.636 653.5,96.5C 653.75,94.326 654.75,92.6594 656.5,91.5C 659.526,89.4623 662.526,87.4623 665.5,85.5 Z"/></g>
<g><path style="opacity:1" fill="#2c7643" d="M 354.5,85.5 C 354.5,85.8333 354.5,86.1667 354.5,86.5C 351.328,87.1259 348.161,87.7926 345,88.5C 344.101,103.874 344.434,119.207 346,134.5C 347.766,137.414 349.266,140.414 350.5,143.5C 345.585,140.692 342.919,136.359 342.5,130.5C 342.5,115.5 342.5,100.5 342.5,85.5C 346.5,85.5 350.5,85.5 354.5,85.5 Z"/></g>
<g><path style="opacity:1" fill="#308832" d="M 429.5,96.5 C 428.549,97.9187 428.216,99.5853 428.5,101.5C 427.833,115.833 427.167,130.167 426.5,144.5C 423.77,145.817 420.937,145.817 418,144.5C 417.667,128.167 417.333,111.833 417,95.5C 412.263,94.5308 407.43,94.1975 402.5,94.5C 402.5,91.8333 402.5,89.1667 402.5,86.5C 415.833,86.5 429.167,86.5 442.5,86.5C 442.5,89.5 442.5,92.5 442.5,95.5C 437.968,95.1818 433.634,95.5151 429.5,96.5 Z"/></g>
<g><path style="opacity:1" fill="#0f7135" d="M 313.5,85.5 C 317.167,85.5 320.833,85.5 324.5,85.5C 324.667,104.836 324.5,124.17 324,143.5C 320.381,145.928 316.548,146.095 312.5,144C 311.113,141.955 309.946,139.788 309,137.5C 309.128,135.555 308.962,133.722 308.5,132C 310.706,131.268 312.372,131.935 313.5,134C 314.793,134.49 316.127,134.657 317.5,134.5C 317.649,133.448 317.483,132.448 317,131.5C 314.942,130.771 313.109,129.771 311.5,128.5C 313.483,114.539 314.15,100.206 313.5,85.5 Z"/></g>
<g><path style="opacity:0.812" fill="#bada87" d="M 694.5,90.5 C 695.89,91.8993 696.89,93.5659 697.5,95.5C 695.241,94.656 694.241,92.9893 694.5,90.5 Z"/></g>
<g><path style="opacity:1" fill="#8fca26" d="M 722.5,99.5 C 722.737,98.209 722.404,97.209 721.5,96.5C 717.366,95.5151 713.032,95.1818 708.5,95.5C 708.5,92.5 708.5,89.5 708.5,86.5C 721.833,86.5 735.167,86.5 748.5,86.5C 748.5,89.5 748.5,92.5 748.5,95.5C 743.5,95.5 738.5,95.5 733.5,95.5C 733.5,112.167 733.5,128.833 733.5,145.5C 730.167,145.5 726.833,145.5 723.5,145.5C 723.83,129.991 723.496,114.658 722.5,99.5 Z"/></g>
<g><path style="opacity:0.135" fill="#c5e7c7" d="M 443.5,84.5 C 443.5,84.8333 443.5,85.1667 443.5,85.5C 429.5,85.5 415.5,85.5 401.5,85.5C 401.5,89.1667 401.5,92.8333 401.5,96.5C 406.5,96.5 411.5,96.5 416.5,96.5C 416.5,113.167 416.5,129.833 416.5,146.5C 416.5,146.833 416.5,147.167 416.5,147.5C 415.503,131.008 415.17,114.342 415.5,97.5C 410.5,97.5 405.5,97.5 400.5,97.5C 400.5,93.1667 400.5,88.8333 400.5,84.5C 414.833,84.5 429.167,84.5 443.5,84.5 Z"/></g>
<g><path style="opacity:0.396" fill="#cceb9e" d="M 681.5,96.5 C 677.5,95.1667 673.5,95.1667 669.5,96.5C 671.117,95.0277 673.117,94.361 675.5,94.5C 677.883,94.361 679.883,95.0277 681.5,96.5 Z"/></g>
<g><path style="opacity:0.188" fill="#bdeacc" d="M 355.5,85.5 C 355.167,85.5 354.833,85.5 354.5,85.5C 350.5,85.5 346.5,85.5 342.5,85.5C 342.5,100.5 342.5,115.5 342.5,130.5C 341.504,115.342 341.17,100.009 341.5,84.5C 346.363,84.1805 351.03,84.5139 355.5,85.5 Z"/></g>
<g><path style="opacity:0.506" fill="#83ba8f" d="M 377.5,85.5 C 377.833,85.5 378.167,85.5 378.5,85.5C 378.5,99.1667 378.5,112.833 378.5,126.5C 378.5,126.833 378.5,127.167 378.5,127.5C 377.691,129.292 377.191,131.292 377,133.5C 375.275,134.464 373.441,135.131 371.5,135.5C 375.118,133.273 376.951,129.94 377,125.5C 377.5,112.171 377.667,98.8375 377.5,85.5 Z"/></g>
<g><path style="opacity:1" fill="#237f33" d="M 388.5,136.5 C 387.5,136.5 386.5,136.5 385.5,136.5C 384.833,138.5 384.167,140.5 383.5,142.5C 381.533,142.739 379.699,142.406 378,141.5C 377.59,142.901 377.09,144.234 376.5,145.5C 370.794,145.829 365.128,145.495 359.5,144.5C 361.423,143.692 363.423,143.192 365.5,143C 364.351,141.256 363.017,141.089 361.5,142.5C 360.585,141.672 359.919,140.672 359.5,139.5C 363.796,138.672 368.129,138.172 372.5,138C 373.716,136.26 375.382,135.26 377.5,135C 378.435,132.619 378.768,130.119 378.5,127.5C 378.5,127.167 378.5,126.833 378.5,126.5C 379.496,113.344 379.829,100.01 379.5,86.5C 382.833,86.5 386.167,86.5 389.5,86.5C 389.742,103.188 389.409,119.854 388.5,136.5 Z"/></g>
<g><path style="opacity:0.318" fill="#abd9b0" d="M 377.5,85.5 C 381.97,84.5139 386.637,84.1805 391.5,84.5C 391.83,100.342 391.496,116.009 390.5,131.5C 390.5,116.167 390.5,100.833 390.5,85.5C 386.5,85.5 382.5,85.5 378.5,85.5C 378.167,85.5 377.833,85.5 377.5,85.5 Z"/></g>
<g><path style="opacity:1" fill="#71ad39" d="M 606.5,85.5 C 617.5,85.5 628.5,85.5 639.5,85.5C 639.5,88.8333 639.5,92.1667 639.5,95.5C 632.167,95.5 624.833,95.5 617.5,95.5C 624.313,94.5088 631.313,94.1755 638.5,94.5C 638.5,91.8333 638.5,89.1667 638.5,86.5C 628.161,86.3335 617.828,86.5002 607.5,87C 606.944,87.3826 606.611,87.8826 606.5,88.5C 606.5,107.5 606.5,126.5 606.5,145.5C 617.167,145.5 627.833,145.5 638.5,145.5C 638.5,142.5 638.5,139.5 638.5,136.5C 633.156,136.334 627.823,136.501 622.5,137C 620.116,140.61 617.116,141.276 613.5,139C 614.025,138.308 614.692,137.808 615.5,137.5C 616.167,132.015 616.833,126.681 617.5,121.5C 617.181,126.363 617.514,131.03 618.5,135.5C 625.5,135.5 632.5,135.5 639.5,135.5C 639.5,139.167 639.5,142.833 639.5,146.5C 628.167,146.5 616.833,146.5 605.5,146.5C 605.179,126.091 605.512,105.758 606.5,85.5 Z"/></g>
<g><path style="opacity:0.796" fill="#4c8462" d="M 313.5,85.5 C 314.15,100.206 313.483,114.539 311.5,128.5C 311.5,128.167 311.5,127.833 311.5,127.5C 312.167,113.5 312.833,99.5 313.5,85.5 Z"/></g>
<g><path style="opacity:0.608" fill="#78b28a" d="M 354.5,85.5 C 354.833,85.5 355.167,85.5 355.5,85.5C 355.104,100.544 355.604,115.544 357,130.5C 360.29,135.059 364.79,136.725 370.5,135.5C 367.024,136.643 363.358,136.81 359.5,136C 358.069,135.535 356.903,134.701 356,133.5C 354.599,117.877 354.099,102.21 354.5,86.5C 354.5,86.1667 354.5,85.8333 354.5,85.5 Z"/></g>
<g><path style="opacity:0.062" fill="#e1fadf" d="M 443.5,84.5 C 444.485,88.6344 444.818,92.9677 444.5,97.5C 439.5,97.5 434.5,97.5 429.5,97.5C 429.5,97.1667 429.5,96.8333 429.5,96.5C 434.167,96.5 438.833,96.5 443.5,96.5C 443.5,92.8333 443.5,89.1667 443.5,85.5C 443.5,85.1667 443.5,84.8333 443.5,84.5 Z"/></g>
<g><path style="opacity:0.152" fill="#daf3bf" d="M 640.5,96.5 C 640.815,92.6286 640.482,88.9619 639.5,85.5C 628.5,85.5 617.5,85.5 606.5,85.5C 604.512,105.473 603.845,125.806 604.5,146.5C 604.5,146.833 604.5,147.167 604.5,147.5C 603.503,126.673 603.169,105.673 603.5,84.5C 616.167,84.5 628.833,84.5 641.5,84.5C 641.817,88.7016 641.483,92.7016 640.5,96.5 Z"/></g>
<g><path style="opacity:0.824" fill="#90b867" d="M 639.5,85.5 C 640.482,88.9619 640.815,92.6286 640.5,96.5C 632.833,96.5 625.167,96.5 617.5,96.5C 617.5,96.1667 617.5,95.8333 617.5,95.5C 624.833,95.5 632.167,95.5 639.5,95.5C 639.5,92.1667 639.5,88.8333 639.5,85.5 Z"/></g>
<g><path style="opacity:0.325" fill="#c1dcb4" d="M 514.5,85.5 C 518.97,84.5139 523.637,84.1805 528.5,84.5C 528.831,105.673 528.497,126.673 527.5,147.5C 527.5,147.167 527.5,146.833 527.5,146.5C 527.5,126.167 527.5,105.833 527.5,85.5C 523.5,85.5 519.5,85.5 515.5,85.5C 515.167,85.5 514.833,85.5 514.5,85.5 Z"/></g>
<g><path style="opacity:0.216" fill="#cfe2a3" d="M 697.5,95.5 C 699.074,97.1016 699.741,99.1016 699.5,101.5C 698.5,101.5 697.5,101.5 696.5,101.5C 697.341,99.6208 697.675,97.6208 697.5,95.5 Z"/></g>
<g><path style="opacity:0.518" fill="#aad393" d="M 573.5,85.5 C 571.167,85.5 568.833,85.5 566.5,85.5C 559.833,85.5 553.167,85.5 546.5,85.5C 546.5,105.833 546.5,126.167 546.5,146.5C 555.167,146.5 563.833,146.5 572.5,146.5C 574.5,146.5 576.5,146.5 578.5,146.5C 567.679,147.495 556.679,147.828 545.5,147.5C 545.5,126.5 545.5,105.5 545.5,84.5C 555.015,84.1731 564.348,84.5064 573.5,85.5 Z"/></g>
<g><path style="opacity:0.18" fill="#d9f1b0" d="M 683.5,97.5 C 684.906,97.9731 685.573,98.9731 685.5,100.5C 684.094,100.027 683.427,99.0269 683.5,97.5 Z"/></g>
<g><path style="opacity:1" fill="#65b568" d="M 152.5,111.5 C 152.611,110.883 152.944,110.383 153.5,110C 151.866,109.506 150.199,109.34 148.5,109.5C 168.784,103.875 180.118,90.542 182.5,69.5C 183.302,70.9516 183.802,72.6183 184,74.5C 184.497,72.1902 184.663,69.8568 184.5,67.5C 180.833,67.5 177.167,67.5 173.5,67.5C 175.948,66.471 178.614,65.8043 181.5,65.5C 183.374,65.3898 184.874,66.0564 186,67.5C 185.378,87.1347 176.211,101.301 158.5,110C 156.564,110.813 154.564,111.313 152.5,111.5 Z"/></g>
<g><path style="opacity:0.841" fill="#7dab74" d="M 456.5,85.5 C 456.333,105.169 456.5,124.836 457,144.5C 460.149,146.362 463.649,147.029 467.5,146.5C 467.5,137.5 467.5,128.5 467.5,119.5C 469.199,119.34 470.866,119.506 472.5,120C 473.252,120.671 473.586,121.504 473.5,122.5C 472.162,120.887 470.495,120.387 468.5,121C 469.484,129.749 469.817,138.582 469.5,147.5C 464.833,147.5 460.167,147.5 455.5,147.5C 455.169,126.66 455.503,105.993 456.5,85.5 Z"/></g>
<g><path style="opacity:0.824" fill="#adcb8d" d="M 585.5,95.5 C 587.899,99.625 588.066,103.958 586,108.5C 585.623,109.942 584.79,110.942 583.5,111.5C 585.085,106.322 585.752,100.988 585.5,95.5 Z"/></g>
<g><path style="opacity:1" fill="#2f8831" d="M 426.5,144.5 C 423.794,144.425 421.127,144.092 418.5,143.5C 418.186,128.136 418.686,112.802 420,97.5C 420.667,94.8333 421.333,94.8333 422,97.5C 422.065,95.1167 422.898,94.45 424.5,95.5C 426.258,111.779 426.925,128.112 426.5,144.5 Z"/></g>
<g><path style="opacity:0.835" fill="#87b578" d="M 482.5,97.5 C 483.583,97.5394 484.583,97.8728 485.5,98.5C 486.484,101.428 486.817,104.428 486.5,107.5C 484.833,108.167 483.167,108.833 481.5,109.5C 485.033,105.767 485.367,101.767 482.5,97.5 Z"/></g>
<g><path style="opacity:0.745" fill="#cae5a1" d="M 685.5,100.5 C 687.456,102.148 689.789,102.815 692.5,102.5C 690.782,103.224 688.948,103.891 687,104.5C 685.812,103.437 685.312,102.103 685.5,100.5 Z"/></g>
<g><path style="opacity:1" fill="#31773c" d="M 378.5,85.5 C 382.5,85.5 386.5,85.5 390.5,85.5C 390.5,100.833 390.5,116.167 390.5,131.5C 390.598,133.553 389.931,135.22 388.5,136.5C 389.409,119.854 389.742,103.188 389.5,86.5C 386.167,86.5 382.833,86.5 379.5,86.5C 379.829,100.01 379.496,113.344 378.5,126.5C 378.5,112.833 378.5,99.1667 378.5,85.5 Z"/></g>
<g><path style="opacity:1" fill="#397c3a" d="M 443.5,85.5 C 443.5,89.1667 443.5,92.8333 443.5,96.5C 438.833,96.5 434.167,96.5 429.5,96.5C 433.634,95.5151 437.968,95.1818 442.5,95.5C 442.5,92.5 442.5,89.5 442.5,86.5C 429.167,86.5 415.833,86.5 402.5,86.5C 402.5,89.1667 402.5,91.8333 402.5,94.5C 407.43,94.1975 412.263,94.5308 417,95.5C 417.333,111.833 417.667,128.167 418,144.5C 420.937,145.817 423.77,145.817 426.5,144.5C 427.167,130.167 427.833,115.833 428.5,101.5C 428.5,116.5 428.5,131.5 428.5,146.5C 424.5,146.5 420.5,146.5 416.5,146.5C 416.5,129.833 416.5,113.167 416.5,96.5C 411.5,96.5 406.5,96.5 401.5,96.5C 401.5,92.8333 401.5,89.1667 401.5,85.5C 415.5,85.5 429.5,85.5 443.5,85.5 Z"/></g>
<g><path style="opacity:0.549" fill="#d3ebb2" d="M 666.5,103.5 C 668.191,104.864 669.858,106.197 671.5,107.5C 669.486,107.608 667.82,106.942 666.5,105.5C 666.5,104.833 666.5,104.167 666.5,103.5 Z"/></g>
<g><path style="opacity:1" fill="#5b9a37" d="M 566.5,85.5 C 566.5,85.8333 566.5,86.1667 566.5,86.5C 560.167,86.5 553.833,86.5 547.5,86.5C 547.203,106.2 547.536,125.867 548.5,145.5C 556.417,145.269 564.417,145.269 572.5,145.5C 572.5,145.833 572.5,146.167 572.5,146.5C 563.833,146.5 555.167,146.5 546.5,146.5C 546.5,126.167 546.5,105.833 546.5,85.5C 553.167,85.5 559.833,85.5 566.5,85.5 Z"/></g>
<g><path style="opacity:0.867" fill="#83b059" d="M 606.5,85.5 C 605.512,105.758 605.179,126.091 605.5,146.5C 605.167,146.5 604.833,146.5 604.5,146.5C 603.845,125.806 604.512,105.473 606.5,85.5 Z"/></g>
<g><path style="opacity:0.196" fill="#adebb1" d="M 142.5,103.5 C 142.025,106.082 142.692,108.082 144.5,109.5C 143.791,110.404 142.791,110.737 141.5,110.5C 141.198,107.941 141.532,105.607 142.5,103.5 Z"/></g>
<g><path style="opacity:1" fill="#64a833" d="M 568.5,86.5 C 572.573,86.8079 576.573,87.4746 580.5,88.5C 583.323,89.9923 584.99,92.3257 585.5,95.5C 585.752,100.988 585.085,106.322 583.5,111.5C 583.167,112.5 582.5,113.167 581.5,113.5C 580.957,113.56 580.624,113.893 580.5,114.5C 581.77,115.288 582.77,116.288 583.5,117.5C 580.986,117.754 578.652,118.587 576.5,120C 578.381,121.102 580.048,122.435 581.5,124C 581.046,126.03 580.38,127.863 579.5,129.5C 579.682,127.409 579.348,125.409 578.5,123.5C 577.675,122.614 576.675,122.281 575.5,122.5C 574.77,120.955 573.437,120.122 571.5,120C 567.167,119.333 562.833,119.333 558.5,120C 557.192,124.833 557.192,129.666 558.5,134.5C 562.97,135.486 567.637,135.819 572.5,135.5C 575.077,135.545 577.077,134.545 578.5,132.5C 578.5,133.833 578.5,135.167 578.5,136.5C 572.034,138.726 565.367,140.06 558.5,140.5C 557.749,139.624 557.249,138.624 557,137.5C 556.333,130.833 556.333,124.167 557,117.5C 558.516,114.949 559.349,115.282 559.5,118.5C 564.844,118.666 570.177,118.499 575.5,118C 578.167,116 578.167,114 575.5,112C 578.332,110.092 577.999,109.259 574.5,109.5C 576.109,105.857 575.776,102.524 573.5,99.5C 573.67,98.1779 573.337,97.0113 572.5,96C 567.511,95.5007 562.511,95.3341 557.5,95.5C 556.039,92.4636 556.873,91.4636 560,92.5C 564.414,91.6971 568.914,91.1971 573.5,91C 571.424,89.8006 569.758,88.3006 568.5,86.5 Z"/></g>
<g><path style="opacity:0.995" fill="#47a64a" d="M 141.5,95.5 C 143.048,95.8212 143.715,96.8212 143.5,98.5C 143.634,100.292 143.301,101.958 142.5,103.5C 141.532,105.607 141.198,107.941 141.5,110.5C 142.791,110.737 143.791,110.404 144.5,109.5C 145.833,109.5 147.167,109.5 148.5,109.5C 150.199,109.34 151.866,109.506 153.5,110C 152.944,110.383 152.611,110.883 152.5,111.5C 148.858,112.607 145.191,113.607 141.5,114.5C 141.5,117.5 141.5,120.5 141.5,123.5C 144.059,123.802 146.393,123.468 148.5,122.5C 150.401,122.567 152.234,122.233 154,121.5C 155.03,121.836 155.53,122.503 155.5,123.5C 153.102,123.259 151.102,123.926 149.5,125.5C 147.031,126.317 144.365,126.817 141.5,127C 142.833,129 142.833,131 141.5,133C 143.473,133.495 145.473,133.662 147.5,133.5C 149.199,133.34 150.866,133.506 152.5,134C 151.944,134.383 151.611,134.883 151.5,135.5C 144.08,138.155 136.746,138.155 129.5,135.5C 129.389,134.883 129.056,134.383 128.5,134C 129.793,133.51 131.127,133.343 132.5,133.5C 134.607,134.468 136.941,134.802 139.5,134.5C 139.5,131.5 139.5,128.5 139.5,125.5C 136.833,125.5 134.167,125.5 131.5,125.5C 128.733,125.142 126.067,124.475 123.5,123.5C 124.552,121.744 126.219,121.077 128.5,121.5C 131.845,123.217 135.511,123.884 139.5,123.5C 139.5,116.5 139.5,109.5 139.5,102.5C 139.34,100.801 139.506,99.1341 140,97.5C 141.107,98.7119 141.607,98.3786 141.5,96.5C 141.5,96.1667 141.5,95.8333 141.5,95.5 Z"/></g>
<g><path style="opacity:0.949" fill="#8ab9a1" d="M 285.5,107.5 C 286.167,107.5 286.833,107.5 287.5,107.5C 288.167,109.5 288.833,111.5 289.5,113.5C 287.684,111.882 286.351,109.882 285.5,107.5 Z"/></g>
<g><path style="opacity:1" fill="#aacf82" d="M 653.5,96.5 C 653.433,101.636 654.1,106.636 655.5,111.5C 654.442,110.4 653.608,109.066 653,107.5C 652.19,103.642 652.357,99.9758 653.5,96.5 Z"/></g>
<g><path style="opacity:1" fill="#7fbe29" d="M 666.5,105.5 C 667.82,106.942 669.486,107.608 671.5,107.5C 671.414,108.496 671.748,109.329 672.5,110C 676.17,110.548 679.837,111.048 683.5,111.5C 686.713,115.018 690.713,117.352 695.5,118.5C 698.623,124.841 699.289,131.508 697.5,138.5C 697.5,139.167 697.167,139.5 696.5,139.5C 694.787,141.85 692.453,142.85 689.5,142.5C 689.5,143.5 689.5,144.5 689.5,145.5C 679.117,147.549 669.117,146.549 659.5,142.5C 659.5,141.5 659.5,140.5 659.5,139.5C 657.142,139.747 655.142,139.081 653.5,137.5C 652.781,135.236 652.448,132.903 652.5,130.5C 656.468,129.567 660.468,128.567 664.5,127.5C 665.515,130.846 667.515,133.513 670.5,135.5C 670.611,136.117 670.944,136.617 671.5,137C 674.833,137.667 678.167,137.667 681.5,137C 682.056,136.617 682.389,136.117 682.5,135.5C 683.728,134.694 684.728,133.694 685.5,132.5C 687.1,129.132 686.434,126.132 683.5,123.5C 680.691,120.962 677.357,119.962 673.5,120.5C 669.414,118.248 665.081,116.582 660.5,115.5C 659.5,114.167 658.5,112.833 657.5,111.5C 656.768,108.932 656.768,106.266 657.5,103.5C 656.5,103.5 655.5,103.5 654.5,103.5C 654.34,101.801 654.506,100.134 655,98.5C 655.893,99.7112 656.726,99.7112 657.5,98.5C 656.691,96.9291 656.357,95.2624 656.5,93.5C 657.822,93.33 658.989,93.6634 660,94.5C 662.828,97.8723 664.995,101.539 666.5,105.5 Z"/></g>
<g><path style="opacity:1" fill="#afd37a" d="M 671.5,107.5 C 675.685,108.54 679.685,109.873 683.5,111.5C 679.837,111.048 676.17,110.548 672.5,110C 671.748,109.329 671.414,108.496 671.5,107.5 Z"/></g>
<g><path style="opacity:0.945" fill="#97be79" d="M 557.5,95.5 C 562.511,95.3341 567.511,95.5007 572.5,96C 573.337,97.0113 573.67,98.1779 573.5,99.5C 575.776,102.524 576.109,105.857 574.5,109.5C 569.008,111.188 563.341,111.855 557.5,111.5C 557.5,106.167 557.5,100.833 557.5,95.5 Z M 573.5,99.5 C 574.186,103.287 573.186,106.454 570.5,109C 566.5,109.667 562.5,109.667 558.5,109C 559.833,105 559.833,101 558.5,97C 563.957,95.776 568.957,96.6093 573.5,99.5 Z"/></g>
<g><path style="opacity:0.192" fill="#b9e2d1" d="M 285.5,85.5 C 280.5,85.5 275.5,85.5 270.5,85.5C 270.5,105.833 270.5,126.167 270.5,146.5C 270.5,146.833 270.5,147.167 270.5,147.5C 269.503,126.673 269.169,105.673 269.5,84.5C 275.026,84.1786 280.36,84.5119 285.5,85.5 Z"/></g>
<g><path style="opacity:0.89" fill="#b8d88c" d="M 655.5,111.5 C 656.167,111.5 656.833,111.5 657.5,111.5C 658.5,112.833 659.5,114.167 660.5,115.5C 658.251,114.92 656.585,113.587 655.5,111.5 Z"/></g>
<g><path style="opacity:0.24" fill="#e0fbb0" d="M 749.5,96.5 C 745.03,97.4861 740.363,97.8195 735.5,97.5C 735.83,114.342 735.497,131.008 734.5,147.5C 734.5,147.167 734.5,146.833 734.5,146.5C 734.5,129.833 734.5,113.167 734.5,96.5C 739.5,96.5 744.5,96.5 749.5,96.5 Z"/></g>
<g><path style="opacity:0.502" fill="#96d8a0" d="M 137.5,99.5 C 138.167,100.5 138.833,101.5 139.5,102.5C 139.5,109.5 139.5,116.5 139.5,123.5C 135.511,123.884 131.845,123.217 128.5,121.5C 131.807,122.051 135.14,122.384 138.5,122.5C 138.691,114.799 138.358,107.132 137.5,99.5 Z"/></g>
<g><path style="opacity:1" fill="#abd074" d="M 683.5,111.5 C 688.515,112.333 692.515,114.666 695.5,118.5C 690.713,117.352 686.713,115.018 683.5,111.5 Z"/></g>
<g><path style="opacity:0.992" fill="#529436" d="M 515.5,85.5 C 519.5,85.5 523.5,85.5 527.5,85.5C 527.5,105.833 527.5,126.167 527.5,146.5C 523.5,146.5 519.5,146.5 515.5,146.5C 515.5,126.167 515.5,105.833 515.5,85.5 Z"/></g>
<g><path style="opacity:1" fill="#4e9d2d" d="M 516.5,86.5 C 519.833,86.5 523.167,86.5 526.5,86.5C 526.5,106.167 526.5,125.833 526.5,145.5C 522.97,146.011 519.804,145.344 517,143.5C 516.5,124.503 516.333,105.503 516.5,86.5 Z"/></g>
<g><path style="opacity:1" fill="#5ba62c" d="M 566.5,86.5 C 567.167,86.5 567.833,86.5 568.5,86.5C 569.758,88.3006 571.424,89.8006 573.5,91C 568.914,91.1971 564.414,91.6971 560,92.5C 556.873,91.4636 556.039,92.4636 557.5,95.5C 557.5,100.833 557.5,106.167 557.5,111.5C 563.341,111.855 569.008,111.188 574.5,109.5C 577.999,109.259 578.332,110.092 575.5,112C 578.167,114 578.167,116 575.5,118C 570.177,118.499 564.844,118.666 559.5,118.5C 559.349,115.282 558.516,114.949 557,117.5C 556.333,124.167 556.333,130.833 557,137.5C 557.249,138.624 557.749,139.624 558.5,140.5C 565.367,140.06 572.034,138.726 578.5,136.5C 578.5,135.167 578.5,133.833 578.5,132.5C 579.11,131.609 579.443,130.609 579.5,129.5C 580.38,127.863 581.046,126.03 581.5,124C 580.048,122.435 578.381,121.102 576.5,120C 578.652,118.587 580.986,117.754 583.5,117.5C 584.965,118.737 586.632,119.737 588.5,120.5C 588.666,126.176 588.499,131.843 588,137.5C 583.702,142.076 578.535,144.743 572.5,145.5C 564.417,145.269 556.417,145.269 548.5,145.5C 547.536,125.867 547.203,106.2 547.5,86.5C 553.833,86.5 560.167,86.5 566.5,86.5 Z M 575.5,122.5 C 578.873,127.956 577.873,132.289 572.5,135.5C 567.637,135.819 562.97,135.486 558.5,134.5C 559.822,130.434 559.822,126.267 558.5,122C 564.218,121.26 569.885,121.427 575.5,122.5 Z"/></g>
<g><path style="opacity:0.309" fill="#e0f6c7" d="M 617.5,96.5 C 625.167,96.5 632.833,96.5 640.5,96.5C 633.352,97.4916 626.019,97.825 618.5,97.5C 618.5,101.5 618.5,105.5 618.5,109.5C 625.167,109.5 631.833,109.5 638.5,109.5C 638.5,113.833 638.5,118.167 638.5,122.5C 631.833,122.5 625.167,122.5 618.5,122.5C 618.5,126.833 618.5,131.167 618.5,135.5C 617.514,131.03 617.181,126.363 617.5,121.5C 624.167,121.5 630.833,121.5 637.5,121.5C 637.5,117.833 637.5,114.167 637.5,110.5C 630.833,110.5 624.167,110.5 617.5,110.5C 617.5,105.833 617.5,101.167 617.5,96.5 Z"/></g>
<g><path style="opacity:1" fill="#43962f" d="M 495.5,112.5 C 492.095,114.652 488.428,116.318 484.5,117.5C 483.145,121.184 484.479,123.517 488.5,124.5C 488.762,129.072 489.928,133.406 492,137.5C 492.718,136.549 493.551,136.383 494.5,137C 496.154,139.498 497.82,141.998 499.5,144.5C 495.488,145.698 491.488,145.698 487.5,144.5C 486.934,140.68 484.934,138.013 481.5,136.5C 481.785,134.712 481.452,133.045 480.5,131.5C 478.462,129.03 476.795,126.363 475.5,123.5C 475.461,122.417 475.127,121.417 474.5,120.5C 475.651,119.269 476.817,119.269 478,120.5C 479.073,118.639 480.24,116.806 481.5,115C 481.167,114.5 480.833,114 480.5,113.5C 478.302,116.243 476.302,116.077 474.5,113C 476.9,112.814 479.234,112.314 481.5,111.5C 483.847,110.849 485.514,109.516 486.5,107.5C 486.817,104.428 486.484,101.428 485.5,98.5C 484.583,97.8728 483.583,97.5394 482.5,97.5C 481.391,97.4431 480.391,97.1098 479.5,96.5C 479.238,94.4362 478.071,93.1029 476,92.5C 472.738,93.2472 468.904,93.2472 464.5,92.5C 468.122,91.6747 471.789,91.1747 475.5,91C 475.167,90.6667 474.833,90.3333 474.5,90C 483.723,85.4063 490.39,87.7396 494.5,97C 494.682,99.3038 494.016,99.8038 492.5,98.5C 491.106,101.651 491.273,104.651 493,107.5C 493.251,105.567 493.751,103.734 494.5,102C 494.833,101.833 495.167,101.667 495.5,101.5C 495.833,102.333 496.167,103.167 496.5,104C 495.784,106.792 495.451,109.626 495.5,112.5 Z"/></g>
<g><path style="opacity:0.051" fill="#cdf6cf" d="M 141.5,114.5 C 142.473,116.948 142.806,119.615 142.5,122.5C 144.5,122.5 146.5,122.5 148.5,122.5C 146.393,123.468 144.059,123.802 141.5,123.5C 141.5,120.5 141.5,117.5 141.5,114.5 Z"/></g>
<g><path style="opacity:1" fill="#a3ca88" d="M 581.5,113.5 C 582.987,114.804 584.654,115.97 586.5,117C 587.823,117.816 588.489,118.983 588.5,120.5C 586.632,119.737 584.965,118.737 583.5,117.5C 582.77,116.288 581.77,115.288 580.5,114.5C 580.624,113.893 580.957,113.56 581.5,113.5 Z"/></g>
<g><path style="opacity:0.965" fill="#b4d486" d="M 660.5,115.5 C 665.081,116.582 669.414,118.248 673.5,120.5C 668.539,120.176 664.206,118.509 660.5,115.5 Z"/></g>
<g><path style="opacity:1" fill="#63b465" d="M 114.5,117.5 C 119.438,118.231 124.105,119.565 128.5,121.5C 126.219,121.077 124.552,121.744 123.5,123.5C 120.15,122.497 116.817,121.497 113.5,120.5C 113.5,120.167 113.5,119.833 113.5,119.5C 115.698,119.591 116.031,118.925 114.5,117.5 Z"/></g>
<g><path style="opacity:1" fill="#47a748" d="M 185.5,116.5 C 187.176,117.183 187.843,118.517 187.5,120.5C 185.833,120.5 184.167,120.5 182.5,120.5C 176.69,119.51 170.69,119.177 164.5,119.5C 164.833,118.833 165.167,118.167 165.5,117.5C 172.103,116.658 178.769,116.325 185.5,116.5 Z"/></g>
<g><path style="opacity:1" fill="#679d7c" d="M 291.5,117.5 C 295.661,118.471 297.328,121.138 296.5,125.5C 294.847,122.869 293.181,120.203 291.5,117.5 Z"/></g>
<g><path style="opacity:1" fill="#4ba84f" d="M 114.5,117.5 C 116.031,118.925 115.698,119.591 113.5,119.5C 107.824,119.334 102.157,119.501 96.5,120C 95.944,120.383 95.6107,120.883 95.5,121.5C 93.2646,121.795 91.2646,121.461 89.5,120.5C 97.5209,116.633 105.854,115.633 114.5,117.5 Z"/></g>
<g><path style="opacity:0.249" fill="#97daa1" d="M 113.5,119.5 C 113.5,119.833 113.5,120.167 113.5,120.5C 107.455,120.303 101.455,120.637 95.5,121.5C 95.6107,120.883 95.944,120.383 96.5,120C 102.157,119.501 107.824,119.334 113.5,119.5 Z"/></g>
<g><path style="opacity:0.361" fill="#96d59e" d="M 164.5,119.5 C 170.69,119.177 176.69,119.51 182.5,120.5C 176.108,120.249 169.775,120.582 163.5,121.5C 163.833,120.833 164.167,120.167 164.5,119.5 Z"/></g>
<g><path style="opacity:1" fill="#6ca15a" d="M 495.5,112.5 C 494.027,115.921 491.361,117.921 487.5,118.5C 485.448,119.053 485.115,120.053 486.5,121.5C 487.906,121.973 488.573,122.973 488.5,124.5C 484.479,123.517 483.145,121.184 484.5,117.5C 488.428,116.318 492.095,114.652 495.5,112.5 Z"/></g>
<g><path style="opacity:0.035" fill="#cfedc7" d="M 487.5,118.5 C 486.89,119.391 486.557,120.391 486.5,121.5C 485.115,120.053 485.448,119.053 487.5,118.5 Z"/></g>
<g><path style="opacity:0.756" fill="#b7d2a4" d="M 575.5,122.5 C 569.885,121.427 564.218,121.26 558.5,122C 559.822,126.267 559.822,130.434 558.5,134.5C 557.192,129.666 557.192,124.833 558.5,120C 562.833,119.333 567.167,119.333 571.5,120C 573.437,120.122 574.77,120.955 575.5,122.5 Z"/></g>
<g><path style="opacity:1" fill="#5db261" d="M 201.5,51.5 C 212.167,51.5 222.833,51.5 233.5,51.5C 233.928,68.8811 233.428,86.2145 232,103.5C 228.969,116.898 222.802,128.565 213.5,138.5C 217.878,144.922 220.878,151.922 222.5,159.5C 220.952,159.821 220.285,160.821 220.5,162.5C 216.14,147.285 207.473,135.119 194.5,126C 190.51,123.858 186.51,122.025 182.5,120.5C 184.167,120.5 185.833,120.5 187.5,120.5C 187.843,118.517 187.176,117.183 185.5,116.5C 191.296,110.581 195.296,103.581 197.5,95.5C 198.167,93.5 198.833,91.5 199.5,89.5C 200.63,87.6046 200.963,82.938 200.5,75.5C 204.146,91.911 200.146,106.244 188.5,118.5C 197.553,122.045 205.053,127.712 211,135.5C 213.285,133.093 215.451,130.593 217.5,128C 214.164,126.879 212.164,124.713 211.5,121.5C 214.265,121.798 216.765,122.798 219,124.5C 221.9,121.943 223.066,118.943 222.5,115.5C 217.857,113.845 213.523,111.678 209.5,109C 210.263,108.056 211.263,107.556 212.5,107.5C 216.797,108.876 220.964,110.543 225,112.5C 226.548,109.794 227.714,106.96 228.5,104C 226.825,103.015 225.158,102.181 223.5,101.5C 226.167,101.5 228.833,101.5 231.5,101.5C 232.773,85.1813 232.773,68.848 231.5,52.5C 230.893,52.6236 230.56,52.9569 230.5,53.5C 220.833,53.5 211.167,53.5 201.5,53.5C 201.5,52.8333 201.5,52.1667 201.5,51.5 Z"/></g>
<g><path style="opacity:0.765" fill="#a9d4a8" d="M 227.5,99.5 C 225.219,99.0773 223.552,99.744 222.5,101.5C 220.451,101.294 220.117,100.461 221.5,99C 223.712,98.2109 225.712,98.3775 227.5,99.5 Z"/></g>
<g><path style="opacity:0.293" fill="#a8eab1" d="M 215.5,86.5 C 220.251,88.1413 225.251,89.1413 230.5,89.5C 225.167,89.5 219.833,89.5 214.5,89.5C 214.263,88.209 214.596,87.209 215.5,86.5 Z"/></g>
<g><path style="opacity:1" fill="#79aa47" d="M 617.5,110.5 C 624.167,110.5 630.833,110.5 637.5,110.5C 637.5,114.167 637.5,117.833 637.5,121.5C 630.833,121.5 624.167,121.5 617.5,121.5C 617.5,121.167 617.5,120.833 617.5,120.5C 623.833,120.5 630.167,120.5 636.5,120.5C 636.5,117.5 636.5,114.5 636.5,111.5C 629.978,111.823 623.645,111.49 617.5,110.5 Z"/></g>
<g><path style="opacity:1" fill="#a6cf6c" d="M 673.5,120.5 C 677.357,119.962 680.691,120.962 683.5,123.5C 686.434,126.132 687.1,129.132 685.5,132.5C 686.178,128.727 684.844,125.894 681.5,124C 678.691,122.907 676.024,121.74 673.5,120.5 Z"/></g>
<g><path style="opacity:0.725" fill="#c5e199" d="M 695.5,118.5 C 698.802,121.296 700.469,124.963 700.5,129.5C 700.25,132.867 699.25,135.867 697.5,138.5C 699.289,131.508 698.623,124.841 695.5,118.5 Z"/></g>
<g><path style="opacity:1" fill="#5cb263" d="M 165.5,117.5 C 165.167,118.167 164.833,118.833 164.5,119.5C 164.167,120.167 163.833,120.833 163.5,121.5C 160.933,122.475 158.267,123.142 155.5,123.5C 155.53,122.503 155.03,121.836 154,121.5C 152.234,122.233 150.401,122.567 148.5,122.5C 153.9,120.259 159.567,118.592 165.5,117.5 Z"/></g>
<g><path style="opacity:0.483" fill="#c6e58a" d="M 721.5,96.5 C 722.404,97.209 722.737,98.209 722.5,99.5C 722.5,115.167 722.5,130.833 722.5,146.5C 726.5,146.5 730.5,146.5 734.5,146.5C 734.5,146.833 734.5,147.167 734.5,147.5C 730.167,147.5 725.833,147.5 721.5,147.5C 721.5,130.833 721.5,114.167 721.5,97.5C 721.5,97.1667 721.5,96.8333 721.5,96.5 Z"/></g>
<g><path style="opacity:1" fill="#90bd81" d="M 473.5,122.5 C 474.167,122.833 474.833,123.167 475.5,123.5C 476.795,126.363 478.462,129.03 480.5,131.5C 481.452,133.045 481.785,134.712 481.5,136.5C 478.331,132.167 475.664,127.5 473.5,122.5 Z"/></g>
<g><path style="opacity:0.204" fill="#afe7b7" d="M 155.5,123.5 C 153.786,124.738 151.786,125.405 149.5,125.5C 151.102,123.926 153.102,123.259 155.5,123.5 Z"/></g>
<g><path style="opacity:1" fill="#91bf6f" d="M 575.5,122.5 C 576.675,122.281 577.675,122.614 578.5,123.5C 579.348,125.409 579.682,127.409 579.5,129.5C 579.443,130.609 579.11,131.609 578.5,132.5C 577.077,134.545 575.077,135.545 572.5,135.5C 577.873,132.289 578.873,127.956 575.5,122.5 Z"/></g>
<g><path style="opacity:1" fill="#18703c" d="M 324.5,85.5 C 325.497,105.66 325.83,125.993 325.5,146.5C 320.167,146.5 314.833,146.5 309.5,146.5C 309.167,145.833 308.833,145.167 308.5,144.5C 308.397,139.27 306.064,135.604 301.5,133.5C 301.5,133.167 301.5,132.833 301.5,132.5C 302.501,131.211 302.334,129.878 301,128.5C 299.6,127.252 298.1,126.252 296.5,125.5C 297.328,121.138 295.661,118.471 291.5,117.5C 290.4,116.395 289.733,115.062 289.5,113.5C 288.833,111.5 288.167,109.5 287.5,107.5C 287.039,105.45 286.372,103.45 285.5,101.5C 284.349,100.269 283.183,100.269 282,101.5C 281.805,99.7928 281.805,98.1261 282,96.5C 280.915,98.6574 279.749,98.8241 278.5,97C 279.833,96.3333 281.167,95.6667 282.5,95C 281.253,93.5064 281.253,92.0064 282.5,90.5C 283.478,90.9767 284.311,91.6433 285,92.5C 285.333,91.8333 285.667,91.1667 286,90.5C 286.708,91.3805 287.542,92.0472 288.5,92.5C 289.167,92.8333 289.833,93.1667 290.5,93.5C 292.25,94.6594 293.25,96.326 293.5,98.5C 293.427,100.027 294.094,101.027 295.5,101.5C 300.247,107.319 304.247,113.652 307.5,120.5C 307.427,122.027 308.094,123.027 309.5,123.5C 310.338,123.842 310.672,124.508 310.5,125.5C 310.833,126.167 311.167,126.833 311.5,127.5C 311.5,127.833 311.5,128.167 311.5,128.5C 313.109,129.771 314.942,130.771 317,131.5C 317.483,132.448 317.649,133.448 317.5,134.5C 316.127,134.657 314.793,134.49 313.5,134C 312.372,131.935 310.706,131.268 308.5,132C 308.962,133.722 309.128,135.555 309,137.5C 309.946,139.788 311.113,141.955 312.5,144C 316.548,146.095 320.381,145.928 324,143.5C 324.5,124.17 324.667,104.836 324.5,85.5 Z"/></g>
<g><path style="opacity:0.318" fill="#b0d9c2" d="M 307.5,120.5 C 308.906,120.973 309.573,121.973 309.5,123.5C 308.094,123.027 307.427,122.027 307.5,120.5 Z"/></g>
<g><path style="opacity:0.467" fill="#90c1a7" d="M 293.5,98.5 C 294.906,98.9731 295.573,99.9731 295.5,101.5C 294.094,101.027 293.427,100.027 293.5,98.5 Z"/></g>
<g><path style="opacity:0.439" fill="#94c2ad" d="M 288.5,90.5 C 289.906,90.9731 290.573,91.9731 290.5,93.5C 289.833,93.1667 289.167,92.8333 288.5,92.5C 288.5,91.8333 288.5,91.1667 288.5,90.5 Z"/></g>
<g><path style="opacity:0.51" fill="#a2e2a7" d="M 131.5,125.5 C 134.167,125.5 136.833,125.5 139.5,125.5C 139.5,128.5 139.5,131.5 139.5,134.5C 136.941,134.802 134.607,134.468 132.5,133.5C 134.5,133.5 136.5,133.5 138.5,133.5C 138.5,131.167 138.5,128.833 138.5,126.5C 135.941,126.802 133.607,126.468 131.5,125.5 Z"/></g>
<g><path style="opacity:0.922" fill="#5e9875" d="M 296.5,125.5 C 298.1,126.252 299.6,127.252 301,128.5C 302.334,129.878 302.501,131.211 301.5,132.5C 299.478,130.469 297.811,128.135 296.5,125.5 Z"/></g>
<g><path style="opacity:0.516" fill="#a3c891" d="M 514.5,85.5 C 514.833,85.5 515.167,85.5 515.5,85.5C 515.5,105.833 515.5,126.167 515.5,146.5C 519.5,146.5 523.5,146.5 527.5,146.5C 527.5,146.833 527.5,147.167 527.5,147.5C 523.167,147.5 518.833,147.5 514.5,147.5C 514.5,126.833 514.5,106.167 514.5,85.5 Z"/></g>
<g><path style="opacity:0.365" fill="#caeab2" d="M 589.5,121.5 C 590.973,124.017 591.64,126.85 591.5,130C 591.494,132.033 591.161,133.866 590.5,135.5C 590.563,130.797 590.229,126.13 589.5,121.5 Z"/></g>
<g><path style="opacity:0.98" fill="#aed07c" d="M 664.5,127.5 C 660.468,128.567 656.468,129.567 652.5,130.5C 652.448,132.903 652.781,135.236 653.5,137.5C 651.138,135.081 650.138,132.081 650.5,128.5C 654.393,128.236 658.226,127.569 662,126.5C 663.07,126.528 663.903,126.861 664.5,127.5 Z"/></g>
<g><path style="opacity:0.859" fill="#a0d0a1" d="M 151.5,135.5 C 151.611,134.883 151.944,134.383 152.5,134C 150.866,133.506 149.199,133.34 147.5,133.5C 149.225,132.095 151.225,131.595 153.5,132C 154.84,134.149 154.173,135.316 151.5,135.5 Z"/></g>
<g><path style="opacity:1" fill="#1c7835" d="M 354.5,86.5 C 354.099,102.21 354.599,117.877 356,133.5C 356.903,134.701 358.069,135.535 359.5,136C 363.358,136.81 367.024,136.643 370.5,135.5C 370.833,135.5 371.167,135.5 371.5,135.5C 373.441,135.131 375.275,134.464 377,133.5C 377.191,131.292 377.691,129.292 378.5,127.5C 378.768,130.119 378.435,132.619 377.5,135C 375.382,135.26 373.716,136.26 372.5,138C 368.129,138.172 363.796,138.672 359.5,139.5C 359.919,140.672 360.585,141.672 361.5,142.5C 363.017,141.089 364.351,141.256 365.5,143C 363.423,143.192 361.423,143.692 359.5,144.5C 365.128,145.495 370.794,145.829 376.5,145.5C 376.5,145.833 376.5,146.167 376.5,146.5C 370.132,146.83 363.798,146.496 357.5,145.5C 357.291,144.914 356.957,144.414 356.5,144C 354.527,143.505 352.527,143.338 350.5,143.5C 349.266,140.414 347.766,137.414 346,134.5C 344.434,119.207 344.101,103.874 345,88.5C 348.161,87.7926 351.328,87.1259 354.5,86.5 Z"/></g>
<g><path style="opacity:0.427" fill="#9ccc99" d="M 429.5,96.5 C 429.5,96.8333 429.5,97.1667 429.5,97.5C 429.5,114.167 429.5,130.833 429.5,147.5C 425.167,147.5 420.833,147.5 416.5,147.5C 416.5,147.167 416.5,146.833 416.5,146.5C 420.5,146.5 424.5,146.5 428.5,146.5C 428.5,131.5 428.5,116.5 428.5,101.5C 428.216,99.5853 428.549,97.9187 429.5,96.5 Z"/></g>
<g><path style="opacity:0.957" fill="#83c58a" d="M 132.5,133.5 C 131.127,133.343 129.793,133.51 128.5,134C 129.056,134.383 129.389,134.883 129.5,135.5C 126.827,135.316 126.16,134.149 127.5,132C 129.391,131.797 131.057,132.297 132.5,133.5 Z"/></g>
<g><path style="opacity:0.569" fill="#6baa8a" d="M 284.5,105.5 C 283.504,119.323 283.171,133.323 283.5,147.5C 279.167,147.5 274.833,147.5 270.5,147.5C 270.5,147.167 270.5,146.833 270.5,146.5C 274.5,146.5 278.5,146.5 282.5,146.5C 282.167,132.151 282.501,117.818 283.5,103.5C 284.298,103.957 284.631,104.624 284.5,105.5 Z"/></g>
<g><path style="opacity:1" fill="#669f52" d="M 488.5,124.5 C 492.993,130.148 496.993,136.148 500.5,142.5C 500.511,144.017 501.177,145.184 502.5,146C 497.511,146.499 492.511,146.666 487.5,146.5C 487.5,145.833 487.5,145.167 487.5,144.5C 491.488,145.698 495.488,145.698 499.5,144.5C 497.82,141.998 496.154,139.498 494.5,137C 493.551,136.383 492.718,136.549 492,137.5C 489.928,133.406 488.762,129.072 488.5,124.5 Z"/></g>
<g><path style="opacity:0.985" fill="#98c148" d="M 749.5,96.5 C 744.5,96.5 739.5,96.5 734.5,96.5C 734.5,113.167 734.5,129.833 734.5,146.5C 730.5,146.5 726.5,146.5 722.5,146.5C 722.5,130.833 722.5,115.167 722.5,99.5C 723.496,114.658 723.83,129.991 723.5,145.5C 726.833,145.5 730.167,145.5 733.5,145.5C 733.5,128.833 733.5,112.167 733.5,95.5C 738.5,95.5 743.5,95.5 748.5,95.5C 748.5,92.5 748.5,89.5 748.5,86.5C 735.167,86.5 721.833,86.5 708.5,86.5C 708.5,89.5 708.5,92.5 708.5,95.5C 713.032,95.1818 717.366,95.5151 721.5,96.5C 716.833,96.5 712.167,96.5 707.5,96.5C 707.5,92.8333 707.5,89.1667 707.5,85.5C 721.5,85.5 735.5,85.5 749.5,85.5C 749.5,89.1667 749.5,92.8333 749.5,96.5 Z"/></g>
<g><path style="opacity:1" fill="#6ea283" d="M 301.5,133.5 C 306.064,135.604 308.397,139.27 308.5,144.5C 305.931,141.039 303.597,137.372 301.5,133.5 Z"/></g>
<g><path style="opacity:1" fill="#6cb229" d="M 617.5,120.5 C 617.5,120.833 617.5,121.167 617.5,121.5C 616.833,126.681 616.167,132.015 615.5,137.5C 614.692,137.808 614.025,138.308 613.5,139C 617.116,141.276 620.116,140.61 622.5,137C 627.823,136.501 633.156,136.334 638.5,136.5C 638.5,139.5 638.5,142.5 638.5,145.5C 627.833,145.5 617.167,145.5 606.5,145.5C 606.5,126.5 606.5,107.5 606.5,88.5C 611.629,88.8185 616.796,88.8185 622,88.5C 622.5,89 623,89.5 623.5,90C 618.292,91.3967 612.959,91.8967 607.5,91.5C 607.5,93.5 607.5,95.5 607.5,97.5C 609.144,97.2865 610.644,97.6198 612,98.5C 616.394,104.712 614.894,108.712 607.5,110.5C 609.762,111.345 610.429,112.678 609.5,114.5C 612.086,115.48 614.753,115.813 617.5,115.5C 617.5,117.167 617.5,118.833 617.5,120.5 Z"/></g>
<g><path style="opacity:0.255" fill="#cce7a9" d="M 670.5,135.5 C 674.5,136.833 678.5,136.833 682.5,135.5C 682.389,136.117 682.056,136.617 681.5,137C 678.167,137.667 674.833,137.667 671.5,137C 670.944,136.617 670.611,136.117 670.5,135.5 Z"/></g>
<g><path style="opacity:1" fill="#6db96d" d="M 89.5,120.5 C 91.2646,121.461 93.2646,121.795 95.5,121.5C 81.6972,127.298 71.3639,136.965 64.5,150.5C 64.5,149.167 64.5,147.833 64.5,146.5C 57.8333,146.5 51.1667,146.5 44.5,146.5C 49.1385,144.422 53.9718,144.088 59,145.5C 60.8254,144.897 62.6587,144.23 64.5,143.5C 69.9918,132.672 78.3251,125.006 89.5,120.5 Z"/></g>
<g><path style="opacity:1" fill="#88b47b" d="M 481.5,136.5 C 484.934,138.013 486.934,140.68 487.5,144.5C 487.5,145.167 487.5,145.833 487.5,146.5C 485.012,143.534 483.012,140.201 481.5,136.5 Z"/></g>
<g><path style="opacity:1" fill="#80b157" d="M 588.5,120.5 C 589.167,120.5 589.5,120.833 589.5,121.5C 590.229,126.13 590.563,130.797 590.5,135.5C 589.014,141.91 585.014,145.576 578.5,146.5C 576.5,146.5 574.5,146.5 572.5,146.5C 572.5,146.167 572.5,145.833 572.5,145.5C 578.535,144.743 583.702,142.076 588,137.5C 588.499,131.843 588.666,126.176 588.5,120.5 Z"/></g>
<g><path style="opacity:1" fill="#bada81" d="M 696.5,139.5 C 695.221,142.652 692.888,144.652 689.5,145.5C 689.5,144.5 689.5,143.5 689.5,142.5C 692.453,142.85 694.787,141.85 696.5,139.5 Z"/></g>
<g><path style="opacity:0.957" fill="#629a69" d="M 388.5,136.5 C 386.5,142.175 382.5,145.508 376.5,146.5C 376.5,146.167 376.5,145.833 376.5,145.5C 377.09,144.234 377.59,142.901 378,141.5C 379.699,142.406 381.533,142.739 383.5,142.5C 384.167,140.5 384.833,138.5 385.5,136.5C 386.5,136.5 387.5,136.5 388.5,136.5 Z"/></g>
<g><path style="opacity:0.996" fill="#6b9f76" d="M 350.5,143.5 C 352.527,143.338 354.527,143.505 356.5,144C 356.957,144.414 357.291,144.914 357.5,145.5C 363.798,146.496 370.132,146.83 376.5,146.5C 375.737,147.268 374.737,147.768 373.5,148C 368.833,148.667 364.167,148.667 359.5,148C 355.965,147.337 352.965,145.837 350.5,143.5 Z"/></g>
<g><path style="opacity:0.518" fill="#a5cb97" d="M 500.5,142.5 C 502.727,143.401 503.727,145.067 503.5,147.5C 497.974,147.821 492.64,147.488 487.5,146.5C 492.511,146.666 497.511,146.499 502.5,146C 501.177,145.184 500.511,144.017 500.5,142.5 Z"/></g>
<g><path style="opacity:0.537" fill="#b9d994" d="M 639.5,135.5 C 641.423,139.029 642.089,143.029 641.5,147.5C 629.167,147.5 616.833,147.5 604.5,147.5C 604.5,147.167 604.5,146.833 604.5,146.5C 604.833,146.5 605.167,146.5 605.5,146.5C 616.833,146.5 628.167,146.5 639.5,146.5C 639.5,142.833 639.5,139.167 639.5,135.5 Z"/></g>
<g><path style="opacity:1" fill="#a4ca6a" d="M 653.5,137.5 C 655.142,139.081 657.142,139.747 659.5,139.5C 659.5,140.5 659.5,141.5 659.5,142.5C 669.117,146.549 679.117,147.549 689.5,145.5C 679.919,149.538 670.252,149.371 660.5,145C 657.261,143.264 654.927,140.764 653.5,137.5 Z"/></g>
<g><path style="opacity:1" fill="#73bd76" d="M 61.5,149.5 C 61.8212,151.048 62.8212,151.715 64.5,151.5C 63.7362,154.018 62.7362,156.351 61.5,158.5C 61.719,157.325 61.3857,156.325 60.5,155.5C 59.6751,157.36 58.6751,159.026 57.5,160.5C 58.0653,156.463 59.3987,152.797 61.5,149.5 Z"/></g>
<g><path style="opacity:0.553" fill="#9fd8a3" d="M 42.5,152.5 C 42.448,154.903 42.7814,157.236 43.5,159.5C 42.0069,158.688 41.3402,157.355 41.5,155.5C 41.5195,154.274 41.8529,153.274 42.5,152.5 Z"/></g>
<g><path style="opacity:0.169" fill="#c8f5cd" d="M 61.5,159.5 C 90.5,160.167 119.5,160.833 148.5,161.5C 147.833,161.5 147.167,161.5 146.5,161.5C 117.826,161.833 89.1589,161.5 60.5,160.5C 60.6236,159.893 60.9569,159.56 61.5,159.5 Z"/></g>
<g><path style="opacity:1" fill="#4aa94d" d="M 44.5,146.5 C 51.1667,146.5 57.8333,146.5 64.5,146.5C 64.5,147.833 64.5,149.167 64.5,150.5C 64.5,150.833 64.5,151.167 64.5,151.5C 62.8212,151.715 61.8212,151.048 61.5,149.5C 56.6842,148.35 51.6842,148.184 46.5,149C 44.6763,149.66 43.343,150.827 42.5,152.5C 41.8529,153.274 41.5195,154.274 41.5,155.5C 41.3402,157.355 42.0069,158.688 43.5,159.5C 43.8333,159.5 44.1667,159.5 44.5,159.5C 46.223,160.8 48.3897,161.467 51,161.5C 53.3608,161.496 55.5274,161.163 57.5,160.5C 58.6751,159.026 59.6751,157.36 60.5,155.5C 61.3857,156.325 61.719,157.325 61.5,158.5C 61.5,158.833 61.5,159.167 61.5,159.5C 60.9569,159.56 60.6236,159.893 60.5,160.5C 89.1589,161.5 117.826,161.833 146.5,161.5C 148.292,162.309 150.292,162.809 152.5,163C 149.964,163.186 147.631,163.686 145.5,164.5C 145.5,169.5 145.5,174.5 145.5,179.5C 143.859,174.749 142.859,169.749 142.5,164.5C 139.5,164.5 136.5,164.5 133.5,164.5C 133.5,166.833 133.5,169.167 133.5,171.5C 131.917,169.492 130.917,167.159 130.5,164.5C 127.278,164.108 124.278,164.608 121.5,166C 122.823,170.6 122.823,175.1 121.5,179.5C 119.859,174.749 118.859,169.749 118.5,164.5C 115.833,164.5 113.167,164.5 110.5,164.5C 110.802,167.059 110.468,169.393 109.5,171.5C 107.917,169.492 106.917,167.159 106.5,164.5C 103.833,164.5 101.167,164.5 98.5,164.5C 98.8205,169.695 98.4872,174.695 97.5,179.5C 95.8587,174.749 94.8587,169.749 94.5,164.5C 91.8127,164.336 89.146,164.503 86.5,165C 86.6118,167.17 86.2785,169.336 85.5,171.5C 83.9174,169.492 82.9174,167.159 82.5,164.5C 79.5525,164.223 76.7191,164.556 74,165.5C 73.6601,170.406 73.4935,175.073 73.5,179.5C 71.8587,174.749 70.8587,169.749 70.5,164.5C 67.8333,164.5 65.1667,164.5 62.5,164.5C 62.8016,167.059 62.4682,169.393 61.5,171.5C 59.9174,169.492 58.9174,167.159 58.5,164.5C 53.4053,164.779 48.4053,164.445 43.5,163.5C 43.1667,162.5 42.5,161.833 41.5,161.5C 40.5058,171.653 40.1724,181.986 40.5,192.5C 39.3392,178.339 39.1725,164.006 40,149.5C 41.129,147.859 42.629,146.859 44.5,146.5 Z"/></g>
<g><path style="opacity:0.097" fill="#c8f7c9" d="M 44.5,159.5 C 48.7352,160.436 53.0685,160.769 57.5,160.5C 55.5274,161.163 53.3608,161.496 51,161.5C 48.3897,161.467 46.223,160.8 44.5,159.5 Z"/></g>
<g><path style="opacity:1" fill="#64b86a" d="M 146.5,161.5 C 147.167,161.5 147.833,161.5 148.5,161.5C 153.434,161.229 158.1,161.896 162.5,163.5C 160.801,163.34 159.134,163.506 157.5,164C 156.883,166.277 156.216,168.444 155.5,170.5C 155.5,168.833 155.5,167.167 155.5,165.5C 152.119,165.54 148.786,165.207 145.5,164.5C 147.631,163.686 149.964,163.186 152.5,163C 150.292,162.809 148.292,162.309 146.5,161.5 Z"/></g>
<g><path style="opacity:0.478" fill="#a4e1ae" d="M 162.5,163.5 C 165.152,163.41 167.485,164.076 169.5,165.5C 166.848,165.59 164.515,164.924 162.5,163.5 Z"/></g>
<g><path style="opacity:1" fill="#319835" d="M 162.5,163.5 C 164.515,164.924 166.848,165.59 169.5,165.5C 169.38,166.586 168.713,167.253 167.5,167.5C 165.547,166.844 163.547,166.511 161.5,166.5C 160.833,166.5 160.167,166.5 159.5,166.5C 158.455,168.77 157.121,170.77 155.5,172.5C 154.167,171.833 154.167,171.167 155.5,170.5C 156.216,168.444 156.883,166.277 157.5,164C 159.134,163.506 160.801,163.34 162.5,163.5 Z"/></g>
<g><path style="opacity:0.812" fill="#87c68d" d="M 462.5,167.5 C 459.167,167.5 455.833,167.5 452.5,167.5C 455.833,164.833 459.167,164.833 462.5,167.5 Z"/></g>
<g><path style="opacity:0.612" fill="#9dd2a6" d="M 527.5,167.5 C 528.946,166.387 530.613,166.22 532.5,167C 531.934,167.995 531.267,168.828 530.5,169.5C 530.179,167.952 529.179,167.285 527.5,167.5 Z"/></g>
<g><path style="opacity:0.824" fill="#80c687" d="M 550.5,167.5 C 546.5,167.5 542.5,167.5 538.5,167.5C 542.479,164.959 546.479,164.959 550.5,167.5 Z"/></g>
<g><path style="opacity:0.518" fill="#99d39c" d="M 58.5,164.5 C 58.9174,167.159 59.9174,169.492 61.5,171.5C 60.791,172.404 59.791,172.737 58.5,172.5C 58.5,169.833 58.5,167.167 58.5,164.5 Z"/></g>
<g><path style="opacity:0.565" fill="#96ce9b" d="M 82.5,164.5 C 82.9174,167.159 83.9174,169.492 85.5,171.5C 84.791,172.404 83.791,172.737 82.5,172.5C 82.5,169.833 82.5,167.167 82.5,164.5 Z"/></g>
<g><path style="opacity:0.627" fill="#89c390" d="M 130.5,164.5 C 130.917,167.159 131.917,169.492 133.5,171.5C 132.791,172.404 131.791,172.737 130.5,172.5C 130.5,169.833 130.5,167.167 130.5,164.5 Z"/></g>
<g><path style="opacity:1" fill="#50a956" d="M 452.5,167.5 C 455.833,167.5 459.167,167.5 462.5,167.5C 465.297,167.967 466.631,169.633 466.5,172.5C 467.01,175.388 466.344,177.721 464.5,179.5C 464.764,172.431 461.431,169.097 454.5,169.5C 452.517,169.157 451.183,169.824 450.5,171.5C 449.833,171.5 449.167,171.5 448.5,171.5C 448.833,169.167 450.167,167.833 452.5,167.5 Z"/></g>
<g><path style="opacity:0.588" fill="#90d097" d="M 106.5,164.5 C 106.917,167.159 107.917,169.492 109.5,171.5C 108.791,172.404 107.791,172.737 106.5,172.5C 106.5,169.833 106.5,167.167 106.5,164.5 Z"/></g>
<g><path style="opacity:1" fill="#6abf6b" d="M 538.5,167.5 C 542.5,167.5 546.5,167.5 550.5,167.5C 554.118,169.727 555.951,173.06 556,177.5C 556.667,185.167 556.667,192.833 556,200.5C 555.802,202.382 555.302,204.048 554.5,205.5C 554.666,195.161 554.5,184.828 554,174.5C 553.667,174.167 553.333,173.833 553,173.5C 552.83,183.342 552.33,193.009 551.5,202.5C 551.666,193.161 551.5,183.827 551,174.5C 547.367,168.639 542.867,167.972 537.5,172.5C 536.833,173.167 536.167,173.833 535.5,174.5C 535.062,173.494 534.396,173.494 533.5,174.5C 533.5,173.833 533.5,173.167 533.5,172.5C 534.167,169.833 535.833,168.167 538.5,167.5 Z"/></g>
<g><path style="opacity:1" fill="#60b263" d="M 361.5,185.5 C 360.778,185.082 360.278,184.416 360,183.5C 359.601,183.728 359.435,184.062 359.5,184.5C 358.833,184.167 358.167,183.833 357.5,183.5C 356.828,179.812 355.995,176.145 355,172.5C 354.119,176.709 352.953,180.709 351.5,184.5C 350.778,184.918 350.278,185.584 350,186.5C 349.825,183.843 349.992,181.176 350.5,178.5C 350.857,174.737 351.69,171.07 353,167.5C 354.049,166.483 355.216,166.316 356.5,167C 358.711,173.011 360.378,179.178 361.5,185.5 Z"/></g>
<g><path style="opacity:1" fill="#3c993f" d="M 402.5,167.5 C 403.5,167.5 404.5,167.5 405.5,167.5C 405.169,169.322 404.502,170.989 403.5,172.5C 403.5,172.833 403.5,173.167 403.5,173.5C 402.4,175.277 401.566,177.277 401,179.5C 400.825,176.843 400.992,174.176 401.5,171.5C 401.232,169.901 401.566,168.568 402.5,167.5 Z"/></g>
<g><path style="opacity:0.706" fill="#9bd69d" d="M 475.5,171.5 C 480.774,169.863 486.441,168.863 492.5,168.5C 485.866,167.503 479.2,167.17 472.5,167.5C 472.5,181.5 472.5,195.5 472.5,209.5C 472.5,209.833 472.5,210.167 472.5,210.5C 471.504,196.01 471.171,181.343 471.5,166.5C 479.167,166.5 486.833,166.5 494.5,166.5C 494.714,168.144 494.38,169.644 493.5,171C 487.509,171.499 481.509,171.666 475.5,171.5 Z"/></g>
<g><path style="opacity:0.725" fill="#89c68e" d="M 655.5,167.5 C 655.5,167.167 655.5,166.833 655.5,166.5C 662.5,166.5 669.5,166.5 676.5,166.5C 676.5,168.167 676.5,169.833 676.5,171.5C 670.741,171.786 665.075,171.452 659.5,170.5C 659.167,170.5 658.833,170.5 658.5,170.5C 664.014,169.833 669.681,169.167 675.5,168.5C 668.866,167.503 662.2,167.17 655.5,167.5 Z"/></g>
<g><path style="opacity:1" fill="#5ab15e" d="M 169.5,165.5 C 181.056,169.443 190.722,176.11 198.5,185.5C 198.703,187.044 199.37,188.378 200.5,189.5C 199.767,190.087 198.767,190.087 197.5,189.5C 196.21,188.942 195.377,187.942 195,186.5C 191.5,190 188,193.5 184.5,197C 182.333,197.5 181.5,196.667 182,194.5C 185.5,191 189,187.5 192.5,184C 190.208,182.71 188.208,181.043 186.5,179C 185.072,178.421 183.738,178.588 182.5,179.5C 181.89,178.609 181.557,177.609 181.5,176.5C 179.235,174.358 176.568,172.691 173.5,171.5C 170.945,175.128 168.945,179.128 167.5,183.5C 166.311,184.429 164.978,184.762 163.5,184.5C 165.007,179.484 167.007,174.65 169.5,170C 166.691,168.907 164.024,167.74 161.5,166.5C 163.547,166.511 165.547,166.844 167.5,167.5C 168.713,167.253 169.38,166.586 169.5,165.5 Z"/></g>
<g><path style="opacity:0.405" fill="#8ada90" d="M 582.5,203.5 C 582.832,191.482 582.499,179.482 581.5,167.5C 580.793,179.197 580.126,190.864 579.5,202.5C 579.167,202.5 578.833,202.5 578.5,202.5C 579.416,190.531 579.749,178.531 579.5,166.5C 580.833,166.5 582.167,166.5 583.5,166.5C 583.829,179.011 583.495,191.345 582.5,203.5 Z"/></g>
<g><path style="opacity:0.161" fill="#cef2d1" d="M 41.5,161.5 C 42.5,161.833 43.1667,162.5 43.5,163.5C 42.507,171.984 42.1736,180.651 42.5,189.5C 41.5064,180.348 41.1731,171.015 41.5,161.5 Z"/></g>
<g><path style="opacity:0.546" fill="#95d29d" d="M 70.5,164.5 C 70.8587,169.749 71.8587,174.749 73.5,179.5C 72.791,180.404 71.791,180.737 70.5,180.5C 70.5,175.167 70.5,169.833 70.5,164.5 Z"/></g>
<g><path style="opacity:0.6" fill="#89c68e" d="M 118.5,164.5 C 118.859,169.749 119.859,174.749 121.5,179.5C 120.791,180.404 119.791,180.737 118.5,180.5C 118.5,175.167 118.5,169.833 118.5,164.5 Z"/></g>
<g><path style="opacity:0.055" fill="#a0d7a3" d="M 159.5,166.5 C 159.007,168.806 158.674,171.139 158.5,173.5C 157.209,173.737 156.209,173.404 155.5,172.5C 157.121,170.77 158.455,168.77 159.5,166.5 Z"/></g>
<g><path style="opacity:0.949" fill="#219b2e" d="M 563.5,168.5 C 563.5,179.5 563.5,190.5 563.5,201.5C 563.44,202.043 563.107,202.376 562.5,202.5C 562.167,196.833 561.833,191.167 561.5,185.5C 561.504,179.458 562.171,173.792 563.5,168.5 Z"/></g>
<g><path style="opacity:1" fill="#1b9527" d="M 655.5,167.5 C 662.2,167.17 668.866,167.503 675.5,168.5C 669.681,169.167 664.014,169.833 658.5,170.5C 658.5,176.167 658.5,181.833 658.5,187.5C 663.651,188.327 668.984,188.827 674.5,189C 669.316,189.174 664.316,189.674 659.5,190.5C 658.51,196.645 658.177,202.978 658.5,209.5C 657.5,209.5 656.5,209.5 655.5,209.5C 655.5,195.5 655.5,181.5 655.5,167.5 Z"/></g>
<g><path style="opacity:0.559" fill="#97ce9e" d="M 94.5,164.5 C 94.8587,169.749 95.8587,174.749 97.5,179.5C 96.791,180.404 95.791,180.737 94.5,180.5C 94.5,175.167 94.5,169.833 94.5,164.5 Z"/></g>
<g><path style="opacity:0.651" fill="#81c28c" d="M 142.5,164.5 C 142.859,169.749 143.859,174.749 145.5,179.5C 144.791,180.404 143.791,180.737 142.5,180.5C 142.5,175.167 142.5,169.833 142.5,164.5 Z"/></g>
<g><path style="opacity:0.925" fill="#79c37c" d="M 402.5,167.5 C 403.568,166.566 404.901,166.232 406.5,166.5C 408.5,175.167 410.5,183.833 412.5,192.5C 411.4,190.723 410.566,188.723 410,186.5C 409.991,189.369 409.824,192.036 409.5,194.5C 405.629,194.815 401.962,194.482 398.5,193.5C 402.182,193.665 405.848,193.499 409.5,193C 407.679,186.024 405.679,179.19 403.5,172.5C 404.502,170.989 405.169,169.322 405.5,167.5C 404.5,167.5 403.5,167.5 402.5,167.5 Z"/></g>
<g><path style="opacity:1" fill="#2a9b34" d="M 606.5,169.5 C 608.262,170.262 609.262,171.596 609.5,173.5C 609.5,177.5 609.5,181.5 609.5,185.5C 607.881,182.452 606.881,179.119 606.5,175.5C 605.5,174.167 604.5,172.833 603.5,171.5C 603.821,169.952 604.821,169.285 606.5,169.5 Z"/></g>
<g><path style="opacity:0.343" fill="#97e0a1" d="M 331.5,167.5 C 327.167,167.5 322.833,167.5 318.5,167.5C 318.5,181.5 318.5,195.5 318.5,209.5C 322.167,209.5 325.833,209.5 329.5,209.5C 330.5,209.5 331.5,209.5 332.5,209.5C 327.695,210.487 322.695,210.821 317.5,210.5C 317.5,195.833 317.5,181.167 317.5,166.5C 322.363,166.181 327.03,166.514 331.5,167.5 Z"/></g>
<g><path style="opacity:1" fill="#119222" d="M 387.5,207.5 C 382.604,209.446 377.271,210.113 371.5,209.5C 371.5,195.833 371.5,182.167 371.5,168.5C 371.56,167.957 371.893,167.624 372.5,167.5C 373.499,180.817 373.833,194.15 373.5,207.5C 378.167,207.5 382.833,207.5 387.5,207.5 Z"/></g>
<g><path style="opacity:0.443" fill="#92d099" d="M 388.5,210.5 C 388.737,209.209 388.404,208.209 387.5,207.5C 382.833,207.5 378.167,207.5 373.5,207.5C 373.833,194.15 373.499,180.817 372.5,167.5C 371.893,167.624 371.56,167.957 371.5,168.5C 370.833,168.5 370.5,168.833 370.5,169.5C 369.226,168.811 369.226,167.977 370.5,167C 371.793,166.51 373.127,166.343 374.5,166.5C 374.5,179.833 374.5,193.167 374.5,206.5C 379.5,206.5 384.5,206.5 389.5,206.5C 389.768,208.099 389.434,209.432 388.5,210.5 Z"/></g>
<g><path style="opacity:1" fill="#218f2a" d="M 602.5,167.5 C 602.833,167.5 603.167,167.5 603.5,167.5C 603.389,168.117 603.056,168.617 602.5,169C 598.514,169.499 594.514,169.666 590.5,169.5C 590.5,176.167 590.5,182.833 590.5,189.5C 594.167,189.5 597.833,189.5 601.5,189.5C 603.066,192.494 602.399,193.494 599.5,192.5C 596.833,192.5 594.167,192.5 591.5,192.5C 590.833,198.014 590.167,203.681 589.5,209.5C 588.501,195.516 588.167,181.516 588.5,167.5C 593.167,167.5 597.833,167.5 602.5,167.5 Z"/></g>
<g><path style="opacity:0.522" fill="#87d88e" d="M 603.5,167.5 C 605.027,167.427 606.027,168.094 606.5,169.5C 604.821,169.285 603.821,169.952 603.5,171.5C 599.566,170.64 595.566,170.307 591.5,170.5C 591.5,176.5 591.5,182.5 591.5,188.5C 594.833,188.5 598.167,188.5 601.5,188.5C 601.5,188.833 601.5,189.167 601.5,189.5C 597.833,189.5 594.167,189.5 590.5,189.5C 590.5,182.833 590.5,176.167 590.5,169.5C 594.514,169.666 598.514,169.499 602.5,169C 603.056,168.617 603.389,168.117 603.5,167.5 Z"/></g>
<g><path style="opacity:0.665" fill="#8ace91" d="M 646.5,166.5 C 648.167,166.5 649.833,166.5 651.5,166.5C 651.5,181.167 651.5,195.833 651.5,210.5C 649.833,210.5 648.167,210.5 646.5,210.5C 646.5,195.833 646.5,181.167 646.5,166.5 Z"/></g>
<g><path style="opacity:0.985" fill="#359842" d="M 647.5,168.5 C 648.209,167.596 649.209,167.263 650.5,167.5C 650.5,181.5 650.5,195.5 650.5,209.5C 649.209,209.737 648.209,209.404 647.5,208.5C 648.83,202.202 649.497,195.535 649.5,188.5C 649.497,181.465 648.83,174.798 647.5,168.5 Z"/></g>
<g><path style="opacity:1" fill="#35813e" d="M 41.5,161.5 C 41.1731,171.015 41.5064,180.348 42.5,189.5C 43.3382,189.842 43.6716,190.508 43.5,191.5C 43.631,192.239 43.4643,192.906 43,193.5C 42.3292,192.748 41.4959,192.414 40.5,192.5C 40.1724,181.986 40.5058,171.653 41.5,161.5 Z"/></g>
<g><path style="opacity:0.678" fill="#7fcb86" d="M 223.5,163.5 C 227.201,173.798 227.201,184.132 223.5,194.5C 224.792,184.169 224.792,173.835 223.5,163.5 Z"/></g>
<g><path style="opacity:1" fill="#13921e" d="M 535.5,174.5 C 535.5,183.5 535.5,192.5 535.5,201.5C 535.217,202.289 534.717,202.956 534,203.5C 533.5,193.839 533.334,184.172 533.5,174.5C 534.396,173.494 535.062,173.494 535.5,174.5 Z"/></g>
<g><path style="opacity:1" fill="#199124" d="M 582.5,203.5 C 581.391,203.443 580.391,203.11 579.5,202.5C 580.126,190.864 580.793,179.197 581.5,167.5C 582.499,179.482 582.832,191.482 582.5,203.5 Z"/></g>
<g><path style="opacity:0.529" fill="#79cd82" d="M 629.5,206.5 C 634.5,206.5 639.5,206.5 644.5,206.5C 644.5,207.833 644.5,209.167 644.5,210.5C 638.167,210.5 631.833,210.5 625.5,210.5C 625.5,195.833 625.5,181.167 625.5,166.5C 626.833,166.5 628.167,166.5 629.5,166.5C 629.5,179.833 629.5,193.167 629.5,206.5 Z"/></g>
<g><path style="opacity:1" fill="#158f22" d="M 629.5,206.5 C 634.017,207.166 638.683,207.833 643.5,208.5C 637.872,209.495 632.206,209.829 626.5,209.5C 626.167,195.484 626.501,181.484 627.5,167.5C 628.167,180.66 628.833,193.66 629.5,206.5 Z"/></g>
<g><path style="opacity:1" fill="#0d941e" d="M 647.5,168.5 C 648.83,174.798 649.497,181.465 649.5,188.5C 649.497,195.535 648.83,202.202 647.5,208.5C 647.5,195.167 647.5,181.833 647.5,168.5 Z"/></g>
<g><path style="opacity:1" fill="#5cb460" d="M 527.5,167.5 C 529.179,167.285 530.179,167.952 530.5,169.5C 527.955,176.261 525.121,182.928 522,189.5C 521.5,196.492 521.334,203.492 521.5,210.5C 520.167,210.5 518.833,210.5 517.5,210.5C 517.666,203.492 517.5,196.492 517,189.5C 513.262,182.03 510.095,174.363 507.5,166.5C 509.144,166.286 510.644,166.62 512,167.5C 514.61,173.053 516.943,178.719 519,184.5C 521.864,178.773 524.697,173.106 527.5,167.5 Z"/></g>
<g><path style="opacity:1" fill="#72b878" d="M 181.5,176.5 C 181.557,177.609 181.89,178.609 182.5,179.5C 181.713,183.37 180.047,184.036 177.5,181.5C 178.612,179.581 179.946,177.914 181.5,176.5 Z"/></g>
<g><path style="opacity:1" fill="#76c07a" d="M 401.5,171.5 C 400.992,174.176 400.825,176.843 401,179.5C 401.566,177.277 402.4,175.277 403.5,173.5C 402.613,178.722 401.279,183.722 399.5,188.5C 399.167,187.5 398.5,186.833 397.5,186.5C 398.076,181.191 399.409,176.191 401.5,171.5 Z"/></g>
<g><path style="opacity:1" fill="#89c38d" d="M 466.5,172.5 C 467.21,174.893 467.877,177.393 468.5,180C 466.694,182.137 465.36,181.97 464.5,179.5C 466.344,177.721 467.01,175.388 466.5,172.5 Z"/></g>
<g><path style="opacity:0.516" fill="#8cd190" d="M 683.5,170.5 C 689.014,169.833 694.681,169.167 700.5,168.5C 693.866,167.503 687.2,167.17 680.5,167.5C 680.5,181.5 680.5,195.5 680.5,209.5C 687.2,209.83 693.866,209.497 700.5,208.5C 694.681,207.833 689.014,207.167 683.5,206.5C 689.418,205.379 695.418,205.212 701.5,206C 702.38,207.356 702.714,208.856 702.5,210.5C 694.833,210.5 687.167,210.5 679.5,210.5C 679.5,195.833 679.5,181.167 679.5,166.5C 686.833,166.5 694.167,166.5 701.5,166.5C 701.5,168.167 701.5,169.833 701.5,171.5C 695.409,171.789 689.409,171.455 683.5,170.5 Z"/></g>
<g><path style="opacity:0.065" fill="#b3f2bb" d="M 220.5,162.5 C 222.057,167.569 222.724,172.902 222.5,178.5C 222.499,182.681 222.166,186.681 221.5,190.5C 221.65,181.143 221.317,171.809 220.5,162.5 Z"/></g>
<g><path style="opacity:0.658" fill="#82c488" d="M 454.5,169.5 C 451.323,173.526 449.99,178.193 450.5,183.5C 451,190.5 451.5,197.5 452,204.5C 452.717,205.044 453.217,205.711 453.5,206.5C 451.983,206.489 450.816,205.823 450,204.5C 449.517,205.448 449.351,206.448 449.5,207.5C 447.896,206.713 447.229,205.38 447.5,203.5C 449.216,193.171 450.216,182.504 450.5,171.5C 451.183,169.824 452.517,169.157 454.5,169.5 Z"/></g>
<g><path style="opacity:1" fill="#6cb96f" d="M 609.5,173.5 C 612.167,177.5 612.167,181.5 609.5,185.5C 609.5,181.5 609.5,177.5 609.5,173.5 Z"/></g>
<g><path style="opacity:1" fill="#339c39" d="M 331.5,167.5 C 333.903,167.393 335.736,168.393 337,170.5C 338.637,173.815 339.137,177.148 338.5,180.5C 337.85,180.804 337.183,181.137 336.5,181.5C 335.832,179.031 335.165,176.698 334.5,174.5C 333.657,172.827 332.324,171.66 330.5,171C 327.518,170.502 324.518,170.335 321.5,170.5C 321.5,175.167 321.5,179.833 321.5,184.5C 325.021,185.166 328.687,185.833 332.5,186.5C 328.623,187.197 324.79,187.864 321,188.5C 320.181,194.681 320.347,200.681 321.5,206.5C 324.477,206.902 327.143,207.902 329.5,209.5C 325.833,209.5 322.167,209.5 318.5,209.5C 318.5,195.5 318.5,181.5 318.5,167.5C 322.833,167.5 327.167,167.5 331.5,167.5 Z"/></g>
<g><path style="opacity:1" fill="#1e962b" d="M 475.5,171.5 C 475.179,176.695 475.513,181.695 476.5,186.5C 481.316,187.326 486.316,187.826 491.5,188C 485.74,187.878 480.407,188.711 475.5,190.5C 475.5,195.5 475.5,200.5 475.5,205.5C 481.111,207.139 487.111,208.139 493.5,208.5C 486.532,209.497 479.532,209.83 472.5,209.5C 472.5,195.5 472.5,181.5 472.5,167.5C 479.2,167.17 485.866,167.503 492.5,168.5C 486.441,168.863 480.774,169.863 475.5,171.5 Z"/></g>
<g><path style="opacity:0.443" fill="#8dd194" d="M 537.5,172.5 C 536.579,182.127 536.245,191.794 536.5,201.5C 536.167,201.5 535.833,201.5 535.5,201.5C 535.5,192.5 535.5,183.5 535.5,174.5C 536.167,173.833 536.833,173.167 537.5,172.5 Z"/></g>
<g><path style="opacity:1" fill="#21952b" d="M 683.5,170.5 C 683.5,175.833 683.5,181.167 683.5,186.5C 688.316,187.326 693.316,187.826 698.5,188C 693.316,188.174 688.316,188.674 683.5,189.5C 682.167,195.167 682.167,200.833 683.5,206.5C 689.014,207.167 694.681,207.833 700.5,208.5C 693.866,209.497 687.2,209.83 680.5,209.5C 680.5,195.5 680.5,181.5 680.5,167.5C 687.2,167.17 693.866,167.503 700.5,168.5C 694.681,169.167 689.014,169.833 683.5,170.5 Z"/></g>
<g><path style="opacity:1" fill="#8fce94" d="M 334.5,174.5 C 335.165,176.698 335.832,179.031 336.5,181.5C 337.183,181.137 337.85,180.804 338.5,180.5C 337.89,182.434 336.89,184.101 335.5,185.5C 335.631,184.624 335.298,183.957 334.5,183.5C 333.583,184.127 332.583,184.461 331.5,184.5C 334.143,181.766 335.143,178.433 334.5,174.5 Z"/></g>
<g><path style="opacity:0.691" fill="#91cb97" d="M 371.5,168.5 C 371.5,182.167 371.5,195.833 371.5,209.5C 377.271,210.113 382.604,209.446 387.5,207.5C 388.404,208.209 388.737,209.209 388.5,210.5C 382.167,210.5 375.833,210.5 369.5,210.5C 369.218,196.877 369.551,183.21 370.5,169.5C 370.5,168.833 370.833,168.5 371.5,168.5 Z"/></g>
<g><path style="opacity:0.914" fill="#48a050" d="M 424.5,167.5 C 423.5,167.5 422.5,167.5 421.5,167.5C 421.5,181.5 421.5,195.5 421.5,209.5C 420.504,195.677 420.171,181.677 420.5,167.5C 421.833,166.167 423.167,166.167 424.5,167.5 Z"/></g>
<g><path style="opacity:0.673" fill="#80c387" d="M 439.5,209.5 C 440.833,209.5 442.167,209.5 443.5,209.5C 443.833,195.484 443.499,181.484 442.5,167.5C 441.501,178.146 441.168,188.813 441.5,199.5C 441.167,199.5 440.833,199.5 440.5,199.5C 440.672,198.508 440.338,197.842 439.5,197.5C 439.951,187.171 440.284,176.838 440.5,166.5C 441.833,166.5 443.167,166.5 444.5,166.5C 444.5,181.167 444.5,195.833 444.5,210.5C 442.585,210.784 440.919,210.451 439.5,209.5 Z"/></g>
<g><path style="opacity:0.729" fill="#86cd8b" d="M 350.5,178.5 C 349.992,181.176 349.825,183.843 350,186.5C 350.278,185.584 350.778,184.918 351.5,184.5C 351.59,187.152 350.924,189.485 349.5,191.5C 349.657,190.127 349.49,188.793 349,187.5C 347.973,190.662 346.806,193.662 345.5,196.5C 346.389,190.181 348.056,184.181 350.5,178.5 Z"/></g>
<g><path style="opacity:0.067" fill="#cdfccf" d="M 564.5,201.5 C 564.167,201.5 563.833,201.5 563.5,201.5C 563.5,190.5 563.5,179.5 563.5,168.5C 562.791,167.596 561.791,167.263 560.5,167.5C 560.5,179.167 560.5,190.833 560.5,202.5C 559.505,190.678 559.172,178.678 559.5,166.5C 561.167,166.5 562.833,166.5 564.5,166.5C 564.5,178.167 564.5,189.833 564.5,201.5 Z"/></g>
<g><path style="opacity:0.478" fill="#b8e1bb" d="M 357.5,183.5 C 358.167,183.833 358.833,184.167 359.5,184.5C 359.5,185.833 359.5,187.167 359.5,188.5C 358.463,187.07 357.796,185.403 357.5,183.5 Z"/></g>
<g><path style="opacity:0.292" fill="#9ae4a0" d="M 602.5,167.5 C 597.833,167.5 593.167,167.5 588.5,167.5C 588.167,181.516 588.501,195.516 589.5,209.5C 590.167,203.681 590.833,198.014 591.5,192.5C 591.5,198.5 591.5,204.5 591.5,210.5C 590.167,210.5 588.833,210.5 587.5,210.5C 587.5,195.833 587.5,181.167 587.5,166.5C 592.695,166.179 597.695,166.513 602.5,167.5 Z"/></g>
<g><path style="opacity:1" fill="#82cc89" d="M 606.5,175.5 C 606.881,179.119 607.881,182.452 609.5,185.5C 609.573,187.027 608.906,188.027 607.5,188.5C 607.631,187.624 607.298,186.957 606.5,186.5C 605.583,187.127 604.583,187.461 603.5,187.5C 606.231,184.073 607.231,180.073 606.5,175.5 Z"/></g>
<g><path style="opacity:0.753" fill="#8bd594" d="M 361.5,185.5 C 362.924,187.515 363.59,189.848 363.5,192.5C 362.076,190.485 361.41,188.152 361.5,185.5 Z"/></g>
<g><path style="opacity:0.806" fill="#6dbd74" d="M 476.5,186.5 C 482.5,186.5 488.5,186.5 494.5,186.5C 494.67,187.822 494.337,188.989 493.5,190C 487.509,190.499 481.509,190.666 475.5,190.5C 480.407,188.711 485.74,187.878 491.5,188C 486.316,187.826 481.316,187.326 476.5,186.5 Z"/></g>
<g><path style="opacity:0.8" fill="#48a853" d="M 683.5,186.5 C 689.167,186.5 694.833,186.5 700.5,186.5C 700.5,187.5 700.5,188.5 700.5,189.5C 699.209,189.263 698.209,189.596 697.5,190.5C 697.167,190.5 696.833,190.5 696.5,190.5C 692.366,189.515 688.032,189.182 683.5,189.5C 688.316,188.674 693.316,188.174 698.5,188C 693.316,187.826 688.316,187.326 683.5,186.5 Z"/></g>
<g><path style="opacity:1" fill="#2f923a" d="M 222.5,159.5 C 223.434,160.568 223.768,161.901 223.5,163.5C 224.792,173.835 224.792,184.169 223.5,194.5C 223.5,194.833 223.5,195.167 223.5,195.5C 222.883,195.611 222.383,195.944 222,196.5C 221.505,194.527 221.338,192.527 221.5,190.5C 222.166,186.681 222.499,182.681 222.5,178.5C 222.724,172.902 222.057,167.569 220.5,162.5C 220.285,160.821 220.952,159.821 222.5,159.5 Z"/></g>
<g><path style="opacity:0.898" fill="#89cf92" d="M 397.5,186.5 C 397.277,190.162 396.277,193.495 394.5,196.5C 394.723,192.838 395.723,189.505 397.5,186.5 Z"/></g>
<g><path style="opacity:0.012" fill="#dbf1de" d="M 700.5,186.5 C 701.434,187.568 701.768,188.901 701.5,190.5C 700.167,190.5 698.833,190.5 697.5,190.5C 698.209,189.596 699.209,189.263 700.5,189.5C 700.5,188.5 700.5,187.5 700.5,186.5 Z"/></g>
<g><path style="opacity:1" fill="#77c47b" d="M 198.5,185.5 C 201.115,187.379 203.281,189.712 205,192.5C 205.791,193.745 206.291,195.078 206.5,196.5C 205.068,194.673 203.401,193.006 201.5,191.5C 201.524,192.786 201.19,194.12 200.5,195.5C 200.025,193.216 199.025,191.216 197.5,189.5C 198.767,190.087 199.767,190.087 200.5,189.5C 199.37,188.378 198.703,187.044 198.5,185.5 Z"/></g>
<g><path style="opacity:1" fill="#1b9825" d="M 424.5,167.5 C 425.674,168.514 426.34,169.847 426.5,171.5C 426.357,173.262 426.691,174.929 427.5,176.5C 427.043,177.298 426.376,177.631 425.5,177.5C 425.539,176.244 425.039,175.244 424,174.5C 424.15,186.543 423.316,198.21 421.5,209.5C 421.5,195.5 421.5,181.5 421.5,167.5C 422.5,167.5 423.5,167.5 424.5,167.5 Z"/></g>
<g><path style="opacity:1" fill="#179124" d="M 518.5,185.5 C 519.824,189.107 520.491,193.107 520.5,197.5C 520.167,201.5 519.833,205.5 519.5,209.5C 518.502,201.528 518.169,193.528 518.5,185.5 Z"/></g>
<g><path style="opacity:1" fill="#5fb664" d="M 335.5,185.5 C 335.062,185.435 334.728,185.601 334.5,186C 343.355,193.314 343.689,200.98 335.5,209C 334.552,209.483 333.552,209.649 332.5,209.5C 331.5,209.5 330.5,209.5 329.5,209.5C 327.143,207.902 324.477,206.902 321.5,206.5C 320.347,200.681 320.181,194.681 321,188.5C 324.79,187.864 328.623,187.197 332.5,186.5C 328.687,185.833 325.021,185.166 321.5,184.5C 324.833,184.5 328.167,184.5 331.5,184.5C 332.583,184.461 333.583,184.127 334.5,183.5C 335.298,183.957 335.631,184.624 335.5,185.5 Z M 321.5,206.5 C 321.5,200.833 321.5,195.167 321.5,189.5C 325.514,189.334 329.514,189.501 333.5,190C 338.712,195.037 338.712,200.037 333.5,205C 329.582,206.156 325.582,206.656 321.5,206.5 Z"/></g>
<g><path style="opacity:1" fill="#75bf7a" d="M 43.5,191.5 C 45.403,191.796 47.0697,192.463 48.5,193.5C 48.1667,193.5 47.8333,193.5 47.5,193.5C 46.6236,193.369 45.9569,193.702 45.5,194.5C 49.6475,195.167 53.6475,195.834 57.5,196.5C 53.1539,196.666 48.8206,196.499 44.5,196C 42.6763,195.34 41.343,194.173 40.5,192.5C 41.4959,192.414 42.3292,192.748 43,193.5C 43.4643,192.906 43.631,192.239 43.5,191.5 Z"/></g>
<g><path style="opacity:0.877" fill="#7cc079" d="M 151.5,193.5 C 152.058,194.79 153.058,195.623 154.5,196C 151.854,196.497 149.187,196.664 146.5,196.5C 146.5,196.167 146.5,195.833 146.5,195.5C 116.021,194.805 83.0213,194.139 47.5,193.5C 47.8333,193.5 48.1667,193.5 48.5,193.5C 82.8354,192.182 117.169,192.182 151.5,193.5 Z"/></g>
<g><path style="opacity:1" fill="#158f1e" d="M 47.5,193.5 C 83.0213,194.139 116.021,194.805 146.5,195.5C 117.831,195.333 89.1647,195.5 60.5,196C 59.6477,197.728 58.6477,197.895 57.5,196.5C 53.6475,195.834 49.6475,195.167 45.5,194.5C 45.9569,193.702 46.6236,193.369 47.5,193.5 Z"/></g>
<g><path style="opacity:1" fill="#1a9527" d="M 412.5,192.5 C 412.662,194.527 412.495,196.527 412,198.5C 411.617,197.944 411.117,197.611 410.5,197.5C 406.688,196.676 402.688,196.176 398.5,196C 402.356,195.823 406.023,195.323 409.5,194.5C 409.824,192.036 409.991,189.369 410,186.5C 410.566,188.723 411.4,190.723 412.5,192.5 Z"/></g>
<g><path style="opacity:0.692" fill="#67b16f" d="M 146.5,195.5 C 146.5,195.833 146.5,196.167 146.5,196.5C 118.167,196.5 89.8333,196.5 61.5,196.5C 61.5,197.5 61.5,198.5 61.5,199.5C 60.8826,199.389 60.3826,199.056 60,198.5C 59.51,199.793 59.3433,201.127 59.5,202.5C 58.2616,200.786 57.595,198.786 57.5,196.5C 58.6477,197.895 59.6477,197.728 60.5,196C 89.1647,195.5 117.831,195.333 146.5,195.5 Z"/></g>
<g><path style="opacity:1" fill="#43a548" d="M 361.5,185.5 C 361.41,188.152 362.076,190.485 363.5,192.5C 364.768,194.905 365.435,197.572 365.5,200.5C 365.662,202.527 365.495,204.527 365,206.5C 364.722,205.584 364.222,204.918 363.5,204.5C 363.829,201.772 363.163,199.438 361.5,197.5C 356.52,196.985 351.854,197.652 347.5,199.5C 346.883,199.611 346.383,199.944 346,200.5C 345.51,199.207 345.343,197.873 345.5,196.5C 346.806,193.662 347.973,190.662 349,187.5C 349.49,188.793 349.657,190.127 349.5,191.5C 350.871,192.787 352.705,193.453 355,193.5C 356.833,193.333 358.667,193.167 360.5,193C 359.62,191.644 359.286,190.144 359.5,188.5C 359.5,187.167 359.5,185.833 359.5,184.5C 359.435,184.062 359.601,183.728 360,183.5C 360.278,184.416 360.778,185.082 361.5,185.5 Z"/></g>
<g><path style="opacity:1" fill="#359f3a" d="M 206.5,196.5 C 207.906,196.973 208.573,197.973 208.5,199.5C 207.85,199.804 207.183,200.137 206.5,200.5C 205.735,199.388 204.735,198.721 203.5,198.5C 203.5,197.833 203.167,197.5 202.5,197.5C 201.167,197.5 200.5,196.833 200.5,195.5C 201.19,194.12 201.524,192.786 201.5,191.5C 203.401,193.006 205.068,194.673 206.5,196.5 Z"/></g>
<g><path style="opacity:0.282" fill="#bcefc9" d="M 420.5,167.5 C 420.171,181.677 420.504,195.677 421.5,209.5C 423.316,198.21 424.15,186.543 424,174.5C 425.039,175.244 425.539,176.244 425.5,177.5C 424.505,188.321 424.172,199.321 424.5,210.5C 422.833,210.5 421.167,210.5 419.5,210.5C 419.171,195.99 419.504,181.657 420.5,167.5 Z"/></g>
<g><path style="opacity:1" fill="#54ad53" d="M 448.5,171.5 C 449.167,171.5 449.833,171.5 450.5,171.5C 450.216,182.504 449.216,193.171 447.5,203.5C 446.342,194.009 446.175,184.342 447,174.5C 447.232,173.263 447.732,172.263 448.5,171.5 Z"/></g>
<g><path style="opacity:1" fill="#64b669" d="M 151.5,193.5 C 165.585,195.927 175.585,203.594 181.5,216.5C 179.952,216.821 179.285,217.821 179.5,219.5C 172.413,206.13 161.413,198.464 146.5,196.5C 149.187,196.664 151.854,196.497 154.5,196C 153.058,195.623 152.058,194.79 151.5,193.5 Z"/></g>
<g><path style="opacity:0.984" fill="#72b877" d="M 200.5,195.5 C 200.5,196.833 201.167,197.5 202.5,197.5C 200.849,198.97 199.015,200.303 197,201.5C 195.186,198.115 196.352,196.115 200.5,195.5 Z"/></g>
<g><path style="opacity:0.522" fill="#a3e1a7" d="M 683.5,189.5 C 688.032,189.182 692.366,189.515 696.5,190.5C 692.167,190.5 687.833,190.5 683.5,190.5C 683.5,195.833 683.5,201.167 683.5,206.5C 682.167,200.833 682.167,195.167 683.5,189.5 Z"/></g>
<g><path style="opacity:1" fill="#72c277" d="M 412.5,192.5 C 413.924,194.515 414.59,196.848 414.5,199.5C 413.305,199.866 412.639,200.699 412.5,202C 413.233,203.766 413.567,205.599 413.5,207.5C 412.007,204.417 411.007,201.083 410.5,197.5C 411.117,197.611 411.617,197.944 412,198.5C 412.495,196.527 412.662,194.527 412.5,192.5 Z"/></g>
<g><path style="opacity:1" fill="#5ab35e" d="M 426.5,171.5 C 430.833,180.167 435.167,188.833 439.5,197.5C 439.328,198.492 439.662,199.158 440.5,199.5C 440.833,199.5 441.167,199.5 441.5,199.5C 441.631,200.376 441.298,201.043 440.5,201.5C 439.549,200.674 438.549,200.508 437.5,201C 439.113,203.228 439.78,205.728 439.5,208.5C 434.075,198.58 429.409,188.246 425.5,177.5C 426.376,177.631 427.043,177.298 427.5,176.5C 426.691,174.929 426.357,173.262 426.5,171.5 Z"/></g>
<g><path style="opacity:1" fill="#1c9327" d="M 554.5,205.5 C 552.121,206.567 551.121,205.567 551.5,202.5C 552.33,193.009 552.83,183.342 553,173.5C 553.333,173.833 553.667,174.167 554,174.5C 554.5,184.828 554.666,195.161 554.5,205.5 Z"/></g>
<g><path style="opacity:1" fill="#79c07b" d="M 203.5,198.5 C 204.735,198.721 205.735,199.388 206.5,200.5C 207.183,200.137 207.85,199.804 208.5,199.5C 209.338,199.842 209.672,200.508 209.5,201.5C 207.952,201.821 207.285,202.821 207.5,204.5C 205.808,202.795 204.475,200.795 203.5,198.5 Z"/></g>
<g><path style="opacity:1" fill="#78bf80" d="M 345.5,196.5 C 345.343,197.873 345.51,199.207 346,200.5C 346.383,199.944 346.883,199.611 347.5,199.5C 347.435,202.428 346.768,205.095 345.5,207.5C 345.662,205.473 345.495,203.473 345,201.5C 344.722,202.416 344.222,203.082 343.5,203.5C 343.41,200.848 344.076,198.515 345.5,196.5 Z"/></g>
<g><path style="opacity:0.667" fill="#8ad097" d="M 361.5,197.5 C 363.163,199.438 363.829,201.772 363.5,204.5C 362.388,202.401 361.721,200.067 361.5,197.5 Z"/></g>
<g><path style="opacity:0.639" fill="#8ed094" d="M 397.5,197.5 C 397.279,200.067 396.612,202.401 395.5,204.5C 395.171,201.772 395.837,199.438 397.5,197.5 Z"/></g>
<g><path style="opacity:1" fill="#129520" d="M 439.5,209.5 C 439.5,209.167 439.5,208.833 439.5,208.5C 439.78,205.728 439.113,203.228 437.5,201C 438.549,200.508 439.549,200.674 440.5,201.5C 441.298,201.043 441.631,200.376 441.5,199.5C 441.168,188.813 441.501,178.146 442.5,167.5C 443.499,181.484 443.833,195.484 443.5,209.5C 442.167,209.5 440.833,209.5 439.5,209.5 Z"/></g>
<g><path style="opacity:0.11" fill="#bff7c4" d="M 655.5,166.5 C 655.5,166.833 655.5,167.167 655.5,167.5C 655.5,181.5 655.5,195.5 655.5,209.5C 656.5,209.5 657.5,209.5 658.5,209.5C 658.177,202.978 658.51,196.645 659.5,190.5C 664.833,190.5 670.167,190.5 675.5,190.5C 675.5,189.5 675.5,188.5 675.5,187.5C 669.833,187.5 664.167,187.5 658.5,187.5C 658.5,181.833 658.5,176.167 658.5,170.5C 658.833,170.5 659.167,170.5 659.5,170.5C 659.5,175.833 659.5,181.167 659.5,186.5C 665.167,186.5 670.833,186.5 676.5,186.5C 676.5,188.167 676.5,189.833 676.5,191.5C 670.833,191.5 665.167,191.5 659.5,191.5C 659.5,197.833 659.5,204.167 659.5,210.5C 657.833,210.5 656.167,210.5 654.5,210.5C 654.171,195.657 654.504,180.99 655.5,166.5 Z"/></g>
<g><path style="opacity:1" fill="#319840" d="M 658.5,187.5 C 664.167,187.5 669.833,187.5 675.5,187.5C 675.5,188.5 675.5,189.5 675.5,190.5C 670.167,190.5 664.833,190.5 659.5,190.5C 664.316,189.674 669.316,189.174 674.5,189C 668.984,188.827 663.651,188.327 658.5,187.5 Z"/></g>
<g><path style="opacity:1" fill="#42a34a" d="M 397.5,186.5 C 398.5,186.833 399.167,187.5 399.5,188.5C 399.634,190.292 399.301,191.958 398.5,193.5C 401.962,194.482 405.629,194.815 409.5,194.5C 406.023,195.323 402.356,195.823 398.5,196C 402.688,196.176 406.688,196.676 410.5,197.5C 406.167,197.5 401.833,197.5 397.5,197.5C 395.837,199.438 395.171,201.772 395.5,204.5C 394.065,205.79 393.065,207.456 392.5,209.5C 391.702,209.043 391.369,208.376 391.5,207.5C 392.036,203.686 393.036,200.019 394.5,196.5C 396.277,193.495 397.277,190.162 397.5,186.5 Z"/></g>
<g><path style="opacity:1" fill="#319939" d="M 414.5,199.5 C 415.434,200.568 415.768,201.901 415.5,203.5C 415.357,205.262 415.691,206.929 416.5,208.5C 416.167,208.833 415.833,209.167 415.5,209.5C 414.818,208.757 414.151,208.091 413.5,207.5C 413.567,205.599 413.233,203.766 412.5,202C 412.639,200.699 413.305,199.866 414.5,199.5 Z"/></g>
<g><path style="opacity:1" fill="#52ad57" d="M 607.5,188.5 C 606.315,189.857 605.315,191.357 604.5,193C 607.313,198.126 609.979,203.293 612.5,208.5C 611.001,209.494 609.334,209.494 607.5,208.5C 604.82,203.14 602.153,197.807 599.5,192.5C 602.399,193.494 603.066,192.494 601.5,189.5C 601.5,189.167 601.5,188.833 601.5,188.5C 601.842,187.662 602.508,187.328 603.5,187.5C 604.583,187.461 605.583,187.127 606.5,186.5C 607.298,186.957 607.631,187.624 607.5,188.5 Z"/></g>
<g><path style="opacity:1" fill="#248f2b" d="M 345.5,207.5 C 345.5,207.833 345.5,208.167 345.5,208.5C 344.425,209.562 343.425,209.562 342.5,208.5C 343.309,206.929 343.643,205.262 343.5,203.5C 344.222,203.082 344.722,202.416 345,201.5C 345.495,203.473 345.662,205.473 345.5,207.5 Z"/></g>
<g><path style="opacity:1" fill="#5bb162" d="M 463.5,209.5 C 463.715,207.821 463.048,206.821 461.5,206.5C 463.577,203.199 464.577,199.532 464.5,195.5C 466.103,195.312 467.437,195.812 468.5,197C 467.718,199.74 467.218,202.574 467,205.5C 466.34,207.324 465.173,208.657 463.5,209.5 Z"/></g>
<g><path style="opacity:1" fill="#349e3c" d="M 209.5,201.5 C 210.674,202.514 211.34,203.847 211.5,205.5C 211.843,207.483 211.176,208.817 209.5,209.5C 209.167,209.5 208.833,209.5 208.5,209.5C 204.757,209.541 204.59,208.874 208,207.5C 208.74,206.251 208.573,205.251 207.5,204.5C 207.285,202.821 207.952,201.821 209.5,201.5 Z"/></g>
<g><path style="opacity:1" fill="#67b36c" d="M 365.5,200.5 C 367.101,203.55 368.101,206.884 368.5,210.5C 364.515,210.56 362.848,208.56 363.5,204.5C 364.222,204.918 364.722,205.584 365,206.5C 365.495,204.527 365.662,202.527 365.5,200.5 Z"/></g>
<g><path style="opacity:1" fill="#7bc079" d="M 395.5,204.5 C 396.152,208.56 394.485,210.56 390.5,210.5C 390.263,209.209 390.596,208.209 391.5,207.5C 391.369,208.376 391.702,209.043 392.5,209.5C 393.065,207.456 394.065,205.79 395.5,204.5 Z"/></g>
<g><path style="opacity:1" fill="#6ab96f" d="M 533.5,172.5 C 533.5,173.167 533.5,173.833 533.5,174.5C 533.334,184.172 533.5,193.839 534,203.5C 534.717,202.956 535.217,202.289 535.5,201.5C 535.833,201.5 536.167,201.5 536.5,201.5C 537.5,204.5 539.5,206.5 542.5,207.5C 541.325,207.281 540.325,207.614 539.5,208.5C 542.833,209.833 546.167,209.833 549.5,208.5C 548.311,207.571 546.978,207.238 545.5,207.5C 548.086,206.585 550.086,204.918 551.5,202.5C 551.121,205.567 552.121,206.567 554.5,205.5C 554.489,207.017 553.823,208.184 552.5,209C 545.658,212.912 539.492,212.078 534,206.5C 532.876,200.605 532.376,194.605 532.5,188.5C 532.501,182.989 532.834,177.656 533.5,172.5 Z"/></g>
<g><path style="opacity:1" fill="#4ba84e" d="M 563.5,168.5 C 562.171,173.792 561.504,179.458 561.5,185.5C 561.833,191.167 562.167,196.833 562.5,202.5C 563.107,202.376 563.44,202.043 563.5,201.5C 563.833,201.5 564.167,201.5 564.5,201.5C 566.616,206.261 570.283,207.761 575.5,206C 576.71,204.961 577.71,203.794 578.5,202.5C 578.833,202.5 579.167,202.5 579.5,202.5C 580.391,203.11 581.391,203.443 582.5,203.5C 582.228,206.732 580.562,208.732 577.5,209.5C 573.5,209.5 569.5,209.5 565.5,209.5C 562.142,208.473 560.475,206.14 560.5,202.5C 560.5,190.833 560.5,179.167 560.5,167.5C 561.791,167.263 562.791,167.596 563.5,168.5 Z"/></g>
<g><path style="opacity:1" fill="#299630" d="M 453.5,206.5 C 456.167,207.833 458.833,207.833 461.5,206.5C 463.048,206.821 463.715,207.821 463.5,209.5C 458.57,209.966 453.903,209.299 449.5,207.5C 449.351,206.448 449.517,205.448 450,204.5C 450.816,205.823 451.983,206.489 453.5,206.5 Z"/></g>
<g><path style="opacity:1" fill="#1b9624" d="M 542.5,207.5 C 543.5,207.5 544.5,207.5 545.5,207.5C 546.978,207.238 548.311,207.571 549.5,208.5C 546.167,209.833 542.833,209.833 539.5,208.5C 540.325,207.614 541.325,207.281 542.5,207.5 Z"/></g>
<g><path style="opacity:1" fill="#74be74" d="M 211.5,205.5 C 212.537,206.93 213.204,208.597 213.5,210.5C 211.824,211.183 211.157,212.517 211.5,214.5C 210.069,213.22 209.402,211.553 209.5,209.5C 211.176,208.817 211.843,207.483 211.5,205.5 Z"/></g>
<g><path style="opacity:0.318" fill="#a7e1ae" d="M 343.5,203.5 C 343.643,205.262 343.309,206.929 342.5,208.5C 343.425,209.562 344.425,209.562 345.5,208.5C 344.817,210.176 343.483,210.843 341.5,210.5C 341.41,207.848 342.076,205.515 343.5,203.5 Z"/></g>
<g><path style="opacity:0.376" fill="#97d29b" d="M 415.5,203.5 C 416.924,205.515 417.59,207.848 417.5,210.5C 416.167,210.5 414.833,210.5 413.5,210.5C 413.5,209.5 413.5,208.5 413.5,207.5C 413.5,208.5 413.5,209.5 413.5,210.5C 414.833,210.5 416.167,210.5 417.5,210.5C 417.59,207.848 416.924,205.515 415.5,203.5 Z"/></g>
<g><path style="opacity:0.839" fill="#83c78a" d="M 449.5,207.5 C 453.903,209.299 458.57,209.966 463.5,209.5C 458.267,212.691 453.601,212.024 449.5,207.5 Z"/></g>
<g><path style="opacity:0.576" fill="#8bcd8f" d="M 475.5,205.5 C 481.833,205.5 488.167,205.5 494.5,205.5C 494.5,207.167 494.5,208.833 494.5,210.5C 487.167,210.5 479.833,210.5 472.5,210.5C 472.5,210.167 472.5,209.833 472.5,209.5C 479.532,209.83 486.532,209.497 493.5,208.5C 487.111,208.139 481.111,207.139 475.5,205.5 Z"/></g>
<g><path style="opacity:0.906" fill="#84c784" d="M 565.5,209.5 C 569.5,209.5 573.5,209.5 577.5,209.5C 573.5,212.167 569.5,212.167 565.5,209.5 Z"/></g>
<g><path style="opacity:0.561" fill="#93cc9e" d="M 607.5,208.5 C 609.334,209.494 611.001,209.494 612.5,208.5C 613.043,208.56 613.376,208.893 613.5,209.5C 611.088,210.949 609.088,210.616 607.5,208.5 Z"/></g>
<g><path style="opacity:1" fill="#6fb970" d="M 207.5,204.5 C 208.573,205.251 208.74,206.251 208,207.5C 204.59,208.874 204.757,209.541 208.5,209.5C 204.377,211.725 200.044,213.725 195.5,215.5C 194.713,214.758 194.047,213.925 193.5,213C 197.545,210.427 201.878,208.427 206.5,207C 207.252,206.329 207.586,205.496 207.5,204.5 Z"/></g>
<g><path style="opacity:1" fill="#5fb464" d="M 221.5,190.5 C 221.338,192.527 221.505,194.527 222,196.5C 222.383,195.944 222.883,195.611 223.5,195.5C 222.128,202.25 219.628,208.583 216,214.5C 215.506,216.134 215.34,217.801 215.5,219.5C 214.755,216.61 214.088,213.61 213.5,210.5C 217.153,204.204 219.819,197.538 221.5,190.5 Z"/></g>
<g><path style="opacity:1" fill="#199624" d="M 213.5,210.5 C 214.088,213.61 214.755,216.61 215.5,219.5C 215.768,221.099 215.434,222.432 214.5,223.5C 214.397,220.364 213.397,217.698 211.5,215.5C 211.5,215.167 211.5,214.833 211.5,214.5C 211.157,212.517 211.824,211.183 213.5,210.5 Z"/></g>
<g><path style="opacity:1" fill="#5cb460" d="M 211.5,215.5 C 213.397,217.698 214.397,220.364 214.5,223.5C 214.167,223.5 213.833,223.5 213.5,223.5C 211.81,223.242 209.81,223.242 207.5,223.5C 206.375,222.652 206.375,221.652 207.5,220.5C 208.952,219.698 210.618,219.198 212.5,219C 211.663,217.989 211.33,216.822 211.5,215.5 Z"/></g>
<g><path style="opacity:0.576" fill="#aed9b2" d="M 207.5,220.5 C 206.375,221.652 206.375,222.652 207.5,223.5C 206.257,224.737 205.257,224.404 204.5,222.5C 205.005,221.081 206.005,220.415 207.5,220.5 Z"/></g>
<g><path style="opacity:0.961" fill="#61b365" d="M 61.5,199.5 C 69.1353,220.805 83.8019,234.471 105.5,240.5C 102.475,240.123 99.4752,239.956 96.5,240C 97.056,240.383 97.3893,240.883 97.5,241.5C 78.3709,234.705 65.7042,221.705 59.5,202.5C 59.3433,201.127 59.51,199.793 60,198.5C 60.3826,199.056 60.8826,199.389 61.5,199.5 Z"/></g>
<g><path style="opacity:0.176" fill="#c3f3c5" d="M 213.5,223.5 C 213.833,223.5 214.167,223.5 214.5,223.5C 214.5,226.833 214.5,230.167 214.5,233.5C 204.652,233.827 194.986,233.494 185.5,232.5C 194.833,232.5 204.167,232.5 213.5,232.5C 213.5,229.5 213.5,226.5 213.5,223.5 Z"/></g>
<g><path style="opacity:0.957" fill="#279931" d="M 215.5,219.5 C 216.451,220.919 216.784,222.585 216.5,224.5C 216.5,228.167 216.5,231.833 216.5,235.5C 208.648,235.175 200.982,235.508 193.5,236.5C 190.14,236.384 186.807,236.051 183.5,235.5C 183.343,234.127 183.51,232.793 184,231.5C 184.383,232.056 184.883,232.389 185.5,232.5C 194.986,233.494 204.652,233.827 214.5,233.5C 214.5,230.167 214.5,226.833 214.5,223.5C 215.434,222.432 215.768,221.099 215.5,219.5 Z"/></g>
<g><path style="opacity:0.352" fill="#9fe1a9" d="M 216.5,224.5 C 217.483,228.298 217.817,232.298 217.5,236.5C 209.5,236.5 201.5,236.5 193.5,236.5C 200.982,235.508 208.648,235.175 216.5,235.5C 216.5,231.833 216.5,228.167 216.5,224.5 Z"/></g>
<g><path style="opacity:0.698" fill="#9acf9e" d="M 143.5,237.5 C 141.5,237.5 139.5,237.5 137.5,237.5C 139.5,234.833 141.5,234.833 143.5,237.5 Z"/></g>
<g><path style="opacity:1" fill="#87cd8c" d="M 143.5,237.5 C 147.025,238.21 150.358,239.21 153.5,240.5C 151.116,240.557 148.782,240.223 146.5,239.5C 145.287,239.747 144.62,240.414 144.5,241.5C 142.236,240.781 139.903,240.448 137.5,240.5C 139.844,240.06 141.844,239.06 143.5,237.5 Z"/></g>
<g><path style="opacity:1" fill="#2c9835" d="M 136.5,237.5 C 136.833,237.5 137.167,237.5 137.5,237.5C 139.5,237.5 141.5,237.5 143.5,237.5C 141.844,239.06 139.844,240.06 137.5,240.5C 137.158,241.338 136.492,241.672 135.5,241.5C 133.801,241.66 132.134,241.494 130.5,241C 132.879,240.284 134.879,239.117 136.5,237.5 Z"/></g>
<g><path style="opacity:0.765" fill="#9dd9a1" d="M 97.5,241.5 C 100.152,241.41 102.485,242.076 104.5,243.5C 101.848,243.59 99.5145,242.924 97.5,241.5 Z"/></g>
<g><path style="opacity:1" fill="#83c886" d="M 136.5,237.5 C 134.879,239.117 132.879,240.284 130.5,241C 132.134,241.494 133.801,241.66 135.5,241.5C 133.485,242.924 131.152,243.59 128.5,243.5C 128.611,242.883 128.944,242.383 129.5,242C 125.514,241.501 121.514,241.334 117.5,241.5C 123.888,240.997 130.221,239.663 136.5,237.5 Z"/></g>
<g><path style="opacity:0.89" fill="#50a857" d="M 105.5,240.5 C 109.566,240.307 113.566,240.64 117.5,241.5C 121.514,241.334 125.514,241.501 129.5,242C 128.944,242.383 128.611,242.883 128.5,243.5C 120.5,243.5 112.5,243.5 104.5,243.5C 102.485,242.076 100.152,241.41 97.5,241.5C 97.3893,240.883 97.056,240.383 96.5,240C 99.4752,239.956 102.475,240.123 105.5,240.5 Z"/></g>
<g><path style="opacity:0.798" fill="#5cb162" d="M 181.5,216.5 C 184.376,221.336 185.709,226.669 185.5,232.5C 184.883,232.389 184.383,232.056 184,231.5C 183.51,232.793 183.343,234.127 183.5,235.5C 186.807,236.051 190.14,236.384 193.5,236.5C 188.961,239.521 183.961,241.687 178.5,243C 168.5,243.667 158.5,243.667 148.5,243C 147.099,242.59 145.766,242.09 144.5,241.5C 144.62,240.414 145.287,239.747 146.5,239.5C 148.782,240.223 151.116,240.557 153.5,240.5C 157.548,240.395 161.548,240.728 165.5,241.5C 168.85,241.665 172.183,241.498 175.5,241C 176.737,240.768 177.737,240.268 178.5,239.5C 180.663,238.531 182.996,237.698 185.5,237C 184.234,236.691 183.067,236.191 182,235.5C 181.756,230.049 180.923,224.716 179.5,219.5C 179.285,217.821 179.952,216.821 181.5,216.5 Z"/></g>
<g><path style="opacity:0.792" fill="#9cd5a0" d="M 178.5,239.5 C 177.737,240.268 176.737,240.768 175.5,241C 172.183,241.498 168.85,241.665 165.5,241.5C 169.657,240.551 173.99,239.884 178.5,239.5 Z"/></g>
</svg>
