<?xml version="1.0" encoding="UTF-8"?>
<!DOCTYPE svg PUBLIC "-//W3C//DTD SVG 1.1//EN" "http://www.w3.org/Graphics/SVG/1.1/DTD/svg11.dtd">
<svg xmlns="http://www.w3.org/2000/svg" version="1.1" width="500px" height="500px" style="shape-rendering:geometricPrecision; text-rendering:geometricPrecision; image-rendering:optimizeQuality; fill-rule:evenodd; clip-rule:evenodd" xmlns:xlink="http://www.w3.org/1999/xlink">
<g><path style="opacity:0.991" fill="#0be440" d="M 383.5,285.5 C 377.518,281.514 372.184,276.847 367.5,271.5C 367.547,253.044 359.213,239.877 342.5,232C 337.917,230.855 333.251,230.189 328.5,230C 302.195,204.695 276.195,179.028 250.5,153C 246.803,151.101 243.136,151.101 239.5,153C 234.631,158.037 229.631,162.87 224.5,167.5C 223.85,167.196 223.183,166.863 222.5,166.5C 221.36,169.316 219.36,170.982 216.5,171.5C 216.167,174.5 214.5,176.167 211.5,176.5C 211.167,179.5 209.5,181.167 206.5,181.5C 206.167,184.5 204.5,186.167 201.5,186.5C 201.167,189.5 199.5,191.167 196.5,191.5C 196.167,194.5 194.5,196.167 191.5,196.5C 191.5,197.833 191.5,199.167 191.5,200.5C 177.535,214.965 163.369,229.299 149,243.5C 147.252,255.426 152.086,259.926 163.5,257C 190.972,230.528 218.139,203.695 245,176.5C 245.399,176.728 245.565,177.062 245.5,177.5C 245.5,180.833 245.5,184.167 245.5,187.5C 224.194,209.14 202.861,230.806 181.5,252.5C 180.502,276.661 180.169,300.994 180.5,325.5C 192.167,325.5 203.833,325.5 215.5,325.5C 215.823,319.31 215.49,313.31 214.5,307.5C 198.765,300.136 194.598,288.469 202,272.5C 208.767,264.963 217.267,261.629 227.5,262.5C 235.91,251.74 246.243,249.574 258.5,256C 263.807,262.487 270.807,265.487 279.5,265C 295.436,274.616 297.769,286.95 286.5,302C 283.968,303.765 281.301,305.265 278.5,306.5C 277.182,309.258 276.515,312.424 276.5,316C 276.502,319.352 276.835,322.518 277.5,325.5C 277.5,326.833 277.5,328.167 277.5,329.5C 275.265,329.205 273.265,329.539 271.5,330.5C 269.974,331.492 269.307,332.992 269.5,335C 269.945,337.59 270.611,340.09 271.5,342.5C 274.91,342.384 276.244,344.05 275.5,347.5C 274.167,347.5 272.833,347.5 271.5,347.5C 271.762,346.022 271.429,344.689 270.5,343.5C 268.115,349.453 270.115,351.786 276.5,350.5C 277.185,363.068 277.851,375.735 278.5,388.5C 212.57,397.284 163.403,372.951 131,315.5C 109.268,264.422 114.601,216.422 147,171.5C 177.644,135.445 216.81,118.945 264.5,122C 324.28,129.79 363.447,162.29 382,219.5C 387.348,241.434 387.848,263.434 383.5,285.5 Z"/></g>
<g><path style="opacity:1" fill="#fcfefc" d="M 367.5,271.5 C 366.208,278.589 362.208,283.423 355.5,286C 342.575,287.461 332.075,282.961 324,272.5C 319.714,266.805 316.881,260.472 315.5,253.5C 315.664,250.813 315.497,248.146 315,245.5C 292.27,222.268 269.103,199.602 245.5,177.5C 245.565,177.062 245.399,176.728 245,176.5C 218.139,203.695 190.972,230.528 163.5,257C 152.086,259.926 147.252,255.426 149,243.5C 163.369,229.299 177.535,214.965 191.5,200.5C 202.833,189.833 213.833,178.833 224.5,167.5C 229.631,162.87 234.631,158.037 239.5,153C 243.136,151.101 246.803,151.101 250.5,153C 276.195,179.028 302.195,204.695 328.5,230C 333.251,230.189 337.917,230.855 342.5,232C 359.213,239.877 367.547,253.044 367.5,271.5 Z"/></g>
<g><path style="opacity:1" fill="#37e358" d="M 224.5,167.5 C 213.833,178.833 202.833,189.833 191.5,200.5C 191.5,199.167 191.5,197.833 191.5,196.5C 194.5,196.167 196.167,194.5 196.5,191.5C 199.5,191.167 201.167,189.5 201.5,186.5C 204.5,186.167 206.167,184.5 206.5,181.5C 209.5,181.167 211.167,179.5 211.5,176.5C 214.5,176.167 216.167,174.5 216.5,171.5C 219.36,170.982 221.36,169.316 222.5,166.5C 223.183,166.863 223.85,167.196 224.5,167.5 Z"/></g>
<g><path style="opacity:1" fill="#fdfefd" d="M 245.5,187.5 C 267.53,208.529 288.863,230.196 309.5,252.5C 309.5,276.5 309.5,300.5 309.5,324.5C 298.833,324.5 288.167,324.5 277.5,324.5C 277.211,318.409 277.545,312.409 278.5,306.5C 281.301,305.265 283.968,303.765 286.5,302C 297.769,286.95 295.436,274.616 279.5,265C 270.807,265.487 263.807,262.487 258.5,256C 246.243,249.574 235.91,251.74 227.5,262.5C 217.267,261.629 208.767,264.963 202,272.5C 194.598,288.469 198.765,300.136 214.5,307.5C 214.5,313.167 214.5,318.833 214.5,324.5C 203.5,324.5 192.5,324.5 181.5,324.5C 181.5,300.5 181.5,276.5 181.5,252.5C 202.861,230.806 224.194,209.14 245.5,187.5 Z"/></g>
<g><path style="opacity:1" fill="#22c342" d="M 245.5,177.5 C 269.103,199.602 292.27,222.268 315,245.5C 315.497,248.146 315.664,250.813 315.5,253.5C 314.542,253.047 313.708,252.381 313,251.5C 312.667,251.833 312.333,252.167 312,252.5C 311.832,277.003 311.332,301.337 310.5,325.5C 310.831,300.994 310.498,276.661 309.5,252.5C 288.863,230.196 267.53,208.529 245.5,187.5C 245.5,184.167 245.5,180.833 245.5,177.5 Z"/></g>
<g><path style="opacity:1" fill="#37e259" d="M 361.5,259.5 C 361.737,260.791 361.404,261.791 360.5,262.5C 357.981,252.476 351.981,245.31 342.5,241C 353.185,242.516 359.518,248.682 361.5,259.5 Z"/></g>
<g><path style="opacity:0.988" fill="#06c236" d="M 315.5,253.5 C 316.881,260.472 319.714,266.805 324,272.5C 332.075,282.961 342.575,287.461 355.5,286C 362.208,283.423 366.208,278.589 367.5,271.5C 372.184,276.847 377.518,281.514 383.5,285.5C 372.985,328.691 347.651,359.857 307.5,379C 298.06,382.941 288.393,386.108 278.5,388.5C 277.851,375.735 277.185,363.068 276.5,350.5C 278.109,348.399 278.609,346.065 278,343.5C 276.074,340.605 274.241,337.771 272.5,335C 274.284,331.876 275.284,332.376 275.5,336.5C 276.5,336.5 277.5,336.5 278.5,336.5C 278.673,331.677 276.339,329.677 271.5,330.5C 273.265,329.539 275.265,329.205 277.5,329.5C 277.5,328.167 277.5,326.833 277.5,325.5C 288.5,325.5 299.5,325.5 310.5,325.5C 311.332,301.337 311.832,277.003 312,252.5C 312.333,252.167 312.667,251.833 313,251.5C 313.708,252.381 314.542,253.047 315.5,253.5 Z"/></g>
<g><path style="opacity:1" fill="#dbf8e4" d="M 309.5,252.5 C 310.498,276.661 310.831,300.994 310.5,325.5C 299.5,325.5 288.5,325.5 277.5,325.5C 276.835,322.518 276.502,319.352 276.5,316C 276.515,312.424 277.182,309.258 278.5,306.5C 277.545,312.409 277.211,318.409 277.5,324.5C 288.167,324.5 298.833,324.5 309.5,324.5C 309.5,300.5 309.5,276.5 309.5,252.5 Z"/></g>
<g><path style="opacity:1" fill="#9aecb0" d="M 361.5,259.5 C 362.622,261.288 362.789,263.288 362,265.5C 361.487,264.473 360.987,263.473 360.5,262.5C 361.404,261.791 361.737,260.791 361.5,259.5 Z"/></g>
<g><path style="opacity:1" fill="#a2f2b5" d="M 181.5,252.5 C 181.5,276.5 181.5,300.5 181.5,324.5C 192.5,324.5 203.5,324.5 214.5,324.5C 214.5,318.833 214.5,313.167 214.5,307.5C 215.49,313.31 215.823,319.31 215.5,325.5C 203.833,325.5 192.167,325.5 180.5,325.5C 180.169,300.994 180.502,276.661 181.5,252.5 Z"/></g>
<g><path style="opacity:1" fill="#f7fef8" d="M 225.5,333.5 C 224.791,332.596 223.791,332.263 222.5,332.5C 222.198,335.059 222.532,337.393 223.5,339.5C 223.5,340.167 223.5,340.833 223.5,341.5C 222.523,344.287 222.19,347.287 222.5,350.5C 221.5,350.5 220.5,350.5 219.5,350.5C 220.758,346.866 220.758,343.2 219.5,339.5C 220.468,337.393 220.802,335.059 220.5,332.5C 219.209,332.263 218.209,332.596 217.5,333.5C 216.596,332.791 216.263,331.791 216.5,330.5C 219.833,330.5 223.167,330.5 226.5,330.5C 226.737,331.791 226.404,332.791 225.5,333.5 Z"/></g>
<g><path style="opacity:1" fill="#ebfcee" d="M 271.5,330.5 C 276.339,329.677 278.673,331.677 278.5,336.5C 277.5,336.5 276.5,336.5 275.5,336.5C 275.284,332.376 274.284,331.876 272.5,335C 274.241,337.771 276.074,340.605 278,343.5C 278.609,346.065 278.109,348.399 276.5,350.5C 270.115,351.786 268.115,349.453 270.5,343.5C 271.429,344.689 271.762,346.022 271.5,347.5C 272.833,347.5 274.167,347.5 275.5,347.5C 276.244,344.05 274.91,342.384 271.5,342.5C 270.611,340.09 269.945,337.59 269.5,335C 269.307,332.992 269.974,331.492 271.5,330.5 Z"/></g>
<g><path style="opacity:1" fill="#e7faeb" d="M 279.5,330.5 C 283.167,330.5 286.833,330.5 290.5,330.5C 290.5,331.5 290.5,332.5 290.5,333.5C 289.167,333.5 287.833,333.5 286.5,333.5C 287.111,339.082 287.111,344.748 286.5,350.5C 285.5,350.5 284.5,350.5 283.5,350.5C 283.5,344.833 283.5,339.167 283.5,333.5C 282.167,333.5 280.833,333.5 279.5,333.5C 279.5,332.5 279.5,331.5 279.5,330.5 Z"/></g>
<g><path style="opacity:1" fill="#e8fceb" d="M 196.5,338.5 C 196.783,339.289 197.283,339.956 198,340.5C 198.176,337.118 198.676,333.785 199.5,330.5C 200.167,333.642 200.834,336.642 201.5,339.5C 201.5,343.167 201.5,346.833 201.5,350.5C 200.167,350.5 198.833,350.5 197.5,350.5C 194.397,336.233 193.064,336.233 193.5,350.5C 192.5,350.5 191.5,350.5 190.5,350.5C 190.5,343.833 190.5,337.167 190.5,330.5C 191.833,330.5 193.167,330.5 194.5,330.5C 194.963,333.221 195.629,335.888 196.5,338.5 Z"/></g>
<g><path style="opacity:1" fill="#e2fbe7" d="M 204.5,330.5 C 205.5,330.5 206.5,330.5 207.5,330.5C 207.5,336.167 207.5,341.833 207.5,347.5C 208.5,347.5 209.5,347.5 210.5,347.5C 210.5,341.833 210.5,336.167 210.5,330.5C 211.5,330.5 212.5,330.5 213.5,330.5C 214.419,336.599 214.252,342.599 213,348.5C 210.333,351.167 207.667,351.167 205,348.5C 203.748,342.599 203.581,336.599 204.5,330.5 Z"/></g>
<g><path style="opacity:1" fill="#eafcee" d="M 244.5,341.5 C 243.523,344.287 243.19,347.287 243.5,350.5C 242.209,350.737 241.209,350.404 240.5,349.5C 240.5,343.167 240.5,336.833 240.5,330.5C 241.5,330.5 242.5,330.5 243.5,330.5C 243.323,334.234 243.656,337.901 244.5,341.5 Z"/></g>
<g><path style="opacity:1" fill="#edfcef" d="M 255.5,333.5 C 255.194,336.385 255.527,339.052 256.5,341.5C 257.604,349.563 254.27,352.397 246.5,350C 246.249,343.575 246.582,337.075 247.5,330.5C 250.942,329.828 253.609,330.828 255.5,333.5 Z"/></g>
<g><path style="opacity:1" fill="#e8fcec" d="M 266.5,330.5 C 266.5,331.5 266.5,332.5 266.5,333.5C 264.833,333.5 263.167,333.5 261.5,333.5C 261.5,335.5 261.5,337.5 261.5,339.5C 262.833,339.5 264.167,339.5 265.5,339.5C 265.5,340.5 265.5,341.5 265.5,342.5C 264.167,342.5 262.833,342.5 261.5,342.5C 261.5,344.167 261.5,345.833 261.5,347.5C 263.167,347.5 264.833,347.5 266.5,347.5C 266.5,348.5 266.5,349.5 266.5,350.5C 263.833,350.5 261.167,350.5 258.5,350.5C 258.5,343.833 258.5,337.167 258.5,330.5C 261.167,330.5 263.833,330.5 266.5,330.5 Z"/></g>
<g><path style="opacity:1" fill="#e4fbe8" d="M 238.5,349.5 C 237.432,350.434 236.099,350.768 234.5,350.5C 234.838,347.843 234.171,345.51 232.5,343.5C 231.526,345.743 231.192,348.076 231.5,350.5C 230.5,350.5 229.5,350.5 228.5,350.5C 228.5,343.833 228.5,337.167 228.5,330.5C 232.007,329.994 235.174,330.66 238,332.5C 238.812,336.67 238.312,340.67 236.5,344.5C 236.801,346.422 237.467,348.088 238.5,349.5 Z"/></g>
<g><path style="opacity:1" fill="#6de98d" d="M 201.5,339.5 C 200.834,336.642 200.167,333.642 199.5,330.5C 198.676,333.785 198.176,337.118 198,340.5C 197.283,339.956 196.783,339.289 196.5,338.5C 197.477,335.713 197.81,332.713 197.5,329.5C 198.833,329.5 200.167,329.5 201.5,329.5C 201.5,332.833 201.5,336.167 201.5,339.5 Z"/></g>
<g><path style="opacity:1" fill="#8ceda7" d="M 217.5,333.5 C 218.209,332.596 219.209,332.263 220.5,332.5C 220.802,335.059 220.468,337.393 219.5,339.5C 219.975,336.918 219.308,334.918 217.5,333.5 Z"/></g>
<g><path style="opacity:1" fill="#75e894" d="M 225.5,333.5 C 223.692,334.918 223.025,336.918 223.5,339.5C 222.532,337.393 222.198,335.059 222.5,332.5C 223.791,332.263 224.791,332.596 225.5,333.5 Z"/></g>
<g><path style="opacity:1" fill="#40e35e" d="M 231.5,333.5 C 232.833,333.5 234.167,333.5 235.5,333.5C 235.663,335.857 235.497,338.19 235,340.5C 233.989,341.337 232.822,341.67 231.5,341.5C 231.5,338.833 231.5,336.167 231.5,333.5 Z"/></g>
<g><path style="opacity:1" fill="#51e468" d="M 249.5,333.5 C 250.833,333.5 252.167,333.5 253.5,333.5C 253.5,335.167 253.5,336.833 253.5,338.5C 252.167,338.5 250.833,338.5 249.5,338.5C 249.5,336.833 249.5,335.167 249.5,333.5 Z"/></g>
<g><path style="opacity:1" fill="#3ee161" d="M 266.5,330.5 C 263.833,330.5 261.167,330.5 258.5,330.5C 258.5,337.167 258.5,343.833 258.5,350.5C 261.167,350.5 263.833,350.5 266.5,350.5C 263.713,351.477 260.713,351.81 257.5,351.5C 257.813,347.958 257.479,344.625 256.5,341.5C 255.527,339.052 255.194,336.385 255.5,333.5C 256.309,335.292 256.809,337.292 257,339.5C 257.498,336.183 257.665,332.85 257.5,329.5C 260.713,329.19 263.713,329.523 266.5,330.5 Z"/></g>
<g><path style="opacity:1" fill="#43e461" d="M 249.5,342.5 C 250.833,342.5 252.167,342.5 253.5,342.5C 253.5,344.167 253.5,345.833 253.5,347.5C 252.167,347.5 250.833,347.5 249.5,347.5C 249.5,345.833 249.5,344.167 249.5,342.5 Z"/></g>
<g><path style="opacity:1" fill="#68e789" d="M 223.5,341.5 C 223.5,344.833 223.5,348.167 223.5,351.5C 221.901,351.768 220.568,351.434 219.5,350.5C 220.5,350.5 221.5,350.5 222.5,350.5C 222.19,347.287 222.523,344.287 223.5,341.5 Z"/></g>
<g><path style="opacity:1" fill="#3fe364" d="M 244.5,341.5 C 244.5,344.833 244.5,348.167 244.5,351.5C 240.429,351.234 236.429,351.567 232.5,352.5C 230.974,352.006 229.641,351.339 228.5,350.5C 229.5,350.5 230.5,350.5 231.5,350.5C 231.192,348.076 231.526,345.743 232.5,343.5C 234.171,345.51 234.838,347.843 234.5,350.5C 236.099,350.768 237.432,350.434 238.5,349.5C 239.167,349.5 239.833,349.5 240.5,349.5C 241.209,350.404 242.209,350.737 243.5,350.5C 243.19,347.287 243.523,344.287 244.5,341.5 Z"/></g>
</svg>
